<svg xmlns="http://www.w3.org/2000/svg" xmlns:xlink="http://www.w3.org/1999/xlink" width="267.8" height="260.8"><path fill="#F18A00" d="M34.9 254.9c21.5-4.5 39.4-10.7 39.6-10.8l4.5-1.6-.6-2.6s-1.3-5.4-2.7-11.7c-1.4-6.2-2.9-13.3-3.2-16.3-.2-1.5-1.4-2.4-2.5-3.1-2-1.2-4.4-1.9-7.2-2.6-8.4-1.9-20.9-3.1-33.5-1.8-7.2.7-14.7 2.4-20.6 5.7-5.9 3.3-9 8-8.7 13.4.1 2.9.3 5.7.6 8.3.9 7.5 2.3 13.3 6.1 17.7 1.9 2.2 4.5 4.1 8.4 5.3 3.9 1.2 8.9 1.5 13.8 1 2-.2 4-.5 6-.9"/><path fill="#F5B335" d="M65.1 212.7c-.5-4.8-58.6-11.3-57.6 10.2s5 32.6 25.5 28.4c20.5-4.2 38-10.3 38-10.3s-5.2-21.9-5.9-28.3"/><path fill="#F18A00" d="M4.5 220.4s15.7-3.9 14.9 3.3c-.8 7.2-15.2 8.7-15.2 8.7l.3-12z"/><path fill="#F18A00" d="M5.1 233.6s15.4-4.9 15.4 1.6c.1 6.5-14.3 9.1-14.3 9.1l-1.1-10.7zM234.4 208.4c-21-.1-39.1 2.2-39.4 2.2l-7.8 1s2.4 7.2 1.6 13.1c-.7 5.9-1.7 12.6-2.3 15.4-.3 1.4.5 2.4 1.3 3.3 1.5 1.5 3.4 2.6 5.7 3.7 7 3.3 18 6.8 29.8 8.1 6.8.7 14.1.7 20.5-1.2s10.8-5.5 12.2-10.5c.8-2.7 1.5-5.3 2.1-7.7 1.6-6.9 2.2-12.6.2-17.3-1-2.3-2.8-4.6-5.9-6.4-3.1-1.9-7.5-3.1-12.1-3.6-2 0-3.9-.1-5.9-.1"/><path fill="#F5B335" d="M193.5 240.9c-1.1 4.4 49.5 21.5 55.5 1.8s5.9-30.6-14-30.7c-20-.1-37.8 2.1-37.8 2.1s-2.3 20.8-3.7 26.8"/><path fill="#F18A00" d="M250.4 246.6s-20.1-1.1-17.1-7.5 20.9-3.5 20.9-3.5l-3.8 11z"/><path fill="#F18A00" d="M253.3 234.4s-20.1-.4-18-7.1c2.2-6.7 20.3-4.3 20.3-4.3l-2.3 11.4z"/><path fill="#AA182C" d="M20.3 183.8c-10.3-.6-23.6 7.8-6.9 18.9 26.4 17.4 205.3 39.5 244.8 7.8 11.9-9.6-5.7-14.4-5.7-14.4s63-171.6-66.3-191.9C65.1-15-26.3 30.5 20.3 183.8"/><path fill="#CF3339" d="M136.9 6.3C40.8 6.3-14.1 61.8 26 180.5c4.3 12.7 75.1 19 99.1 19.7 25.1.8 111.4 5.8 120.5-9.7C254.7 175 316.5 6.3 136.9 6.3"/><g><defs><path id="a" d="M25.8 180.5c4.3 12.7 75.1 19 99.1 19.7 25.1.8 111.4 5.8 120.5-9.7C254.6 175 316.3 6.3 136.8 6.3c-96.1 0-151 55.5-111 174.2"/></defs><clipPath id="b"><use xlink:href="#a" overflow="visible"/></clipPath><path clip-path="url(#b)" fill="#674459" d="M187.3 141.3l.2-.5c-4.9-2-9.1-4.8-12-8.3-2.9-3.6-4.6-7.9-4.6-13.1v-.1c0-.7 0-1.3.1-2l.1-.7-.7.1c-5.4.5-11.2.5-16.3 1.1-2.9.3-5.6.8-7.9 1.6-2.3.8-4.2 1.8-5.5 3.3l.5.4-.5-.4-.6.6-.9-.3c-5.4-1.7-9.4-4.6-12.6-8.1-3.2-3.6-5.4-7.9-7.3-12.4-3.8-9.1-6.1-19.3-10.5-27.4l-1-1.8 2.3.3c5.6.8 11.1 1.2 16.5 1.2h.1c14.8 0 29.2-2.5 44-3.7h.6V61l-.7.1c-8.5.7-18.7 5.1-21.3 6.4l.3.5-.3-.5-.6.3-.6-.2c-4-1.6-6.9-4.2-9.1-7.3-2.2-3.1-3.7-6.7-4.9-10.5-2.5-7.6-3.9-15.9-7.4-22.2l-.3-.6-.3-.6-.6.4c-3.6 2.3-7.5 4.3-12.2 5.4l-3.5.8 2.2-2.5c7.8-8.6 17.5-16.7 25.8-25.6 8.3-8.8 15.1-18.2 17.1-29.3l.2-.9 1.1.1c5.3.2 9.3 1.8 12 4 2.7 2.3 4.1 5.2 4.1 8.3v.2c0 3.5-1.6 7-4.6 9.9l-1.3.8 1.8-.2c11.5-1.2 20.1-5.1 29.1-8.7l.5-.2.5.2c3.6 1.1 7.6 2.1 11 3.7 3.4 1.6 6.4 3.9 7.7 7.6l.3.8-.9.4c-11 4.5-19.9 10.9-28.4 17.7l-1.6 1.3 2-.2c12.7-1.4 24.1-5.4 34.4-5.4h.2c7.1 0 13.8 2.3 19.2 8.9l.4.5-.3.6c-3.4 5.9-6 12.5-9.1 18.8-3.1 6.3-6.6 12.4-12 17l-.5.4-.7-.2c-6-1.4-13.8-2.7-21.4-2.7-3.8 0-7.5.3-10.8 1.1l-.5.1v8.8h1.8c16.9 0 32.3-6 45.6-6h.2c7.7 0 14.9 2.3 20.6 9l.4.5-.4.6c-4.1 6.4-7 13.8-10.2 21.1-3.3 7.2-6.9 14.3-12.2 20l-.6.6-.9-.3c-5.1-1.8-10.7-2.4-16.4-2.4-9.4 0-19.3 1.6-29.1 2.3h-.5v.5c-.1.7-.1 1.4-.1 2 0 5 1.6 8.6 3 12.7l.1.2.2.1c6.8 3.6 17.5 5.1 28.9 5.1H218c13 0 26.8-1.9 36-4.2h.2c1.6-.8 2.8-2.2 3.8-3.9.9-1.7 1.7-3.7 2.4-5.8l-.6-.2.6.2c.7-2.1 1.4-4.3 2.5-6.3 1-2 2.4-3.7 4.6-5l1.9-1.1v2c.1 6.1 1.9 10.7 4.1 15 2.2 4.4 4.7 8.5 6.3 13.8l.3 1-1.1.3c-12.2 2.9-33.8 6.4-54.4 6.4-13.5 0-26.6-1.4-36.6-5.6l-.7.4-.2.5c10.2 4.2 23.4 5.6 37 5.6 20.8 0 42.4-3.4 54.7-6.4l2.4-.6-.6-2.1c-1.6-5.4-4.2-9.6-6.3-13.9-2.2-4.3-3.9-8.7-4-14.5l-.1-4-3.7 2.2c-2.4 1.4-3.9 3.4-5 5.5s-1.8 4.3-2.5 6.4c-.7 2.1-1.4 4-2.3 5.5-.9 1.6-1.9 2.7-3.3 3.4l.3.5-.2-.6c-9.1 2.3-22.8 4.1-35.7 4.1H217.5c-11.2 0-21.9-1.5-28.3-4.9l-.3.5.6-.2c-1.4-4.2-2.9-7.6-2.9-12.4 0-.6 0-1.2.1-1.9h-.6v.6c9.8-.7 19.8-2.3 29-2.3 5.7 0 11.1.6 16 2.3l1.6.6 1.1-1.2c5.5-5.8 9.1-13 12.4-20.3 3.3-7.3 6.2-14.7 10.2-20.9l.6-.9.2-.4-1-1.2c-6-7-13.6-9.5-21.6-9.5h-.2c-13.7.1-29 6-45.6 6h-1.2v.6h.6v-7.7h-.6l.1.6c3.3-.7 6.9-1 10.6-1 7.4 0 15.1 1.3 21.1 2.7l1 .2.3.1 1-.9c5.5-4.8 9.1-11 12.3-17.4 3.1-6.4 5.7-13 9.1-18.8l.5-.9.2-.3-.8-1c-5.6-6.9-12.7-9.3-20.1-9.3h-.2c-10.5.1-21.9 4.1-34.5 5.4l.1.6.4.5c8.5-6.8 17.3-13.1 28.1-17.5l2-.8-.8-2c-1.4-4.1-4.7-6.6-8.3-8.2-3.6-1.7-7.6-2.6-11.1-3.7l-.7-.2-.2-.1-.9.4c-9.1 3.7-17.5 7.4-28.8 8.6l.1.6.4.4c3.2-3.1 5-6.9 5-10.7h-.6.6v-.2c0-3.4-1.6-6.7-4.5-9.2-2.9-2.5-7.3-4.1-12.8-4.3v.6-.6l-2.2-.1-.4 2c-2 10.7-8.6 20-16.8 28.7-8.2 8.7-17.9 16.9-25.8 25.6l-4.8 5.2 7.3-1.7c4.8-1.1 8.9-3.1 12.6-5.5l-.3-.5-.5.3.3.6c3.3 6.1 4.8 14.4 7.3 22 1.3 3.8 2.8 7.6 5.1 10.8 2.3 3.2 5.4 6 9.7 7.7l.8.3.2.1 1.1-.5c2.6-1.2 12.8-5.5 20.9-6.2l-.1-.6h-.6v8.6h.6l-.1-.6c-14.9 1.2-29.2 3.7-43.9 3.7h-.1c-5.4 0-10.8-.3-16.3-1.1l-4.7-.7 2.1 3.9c4.4 7.9 6.7 18.1 10.5 27.3 1.9 4.6 4.2 9 7.5 12.7 3.3 3.7 7.5 6.7 13.2 8.5l1.2.4.4.1 1.1-1.2c1.1-1.2 2.8-2.2 5-2.9 2.1-.7 4.7-1.2 7.6-1.5 5-.6 10.8-.6 16.3-1.1l-.1-.6h-.6c-.1.7-.1 1.4-.1 2.1v.1c0 5.5 1.8 10.1 4.9 13.9 3.1 3.8 7.4 6.6 12.5 8.7l.3-.5zm-12.9-25.9l-.6-.1c-.2 1.3-.3 2.6-.3 3.8 0 4.9 1.5 8.8 4.1 12.1 2.6 3.2 6.4 5.7 11.1 7.7 9.3 3.9 22.1 5.3 35.4 5.3h.2c19.3 0 39.7-3.1 51.9-5.9l.6-.1-.2-.6c-1.4-4-3.5-7.5-5.4-11.2-1.9-3.7-3.6-7.7-4.3-12.7l-.2-1.5-.9 1.3c-1.4 2-2.4 4.7-3.3 7.5l.6.2-.6-.2c-.7 2.1-1.5 4.3-2.6 6.2-1.1 1.9-2.6 3.6-4.9 4.8l.3.5-.3-.5-.2.1h-.2l.2.6-.2-.6c-9.5 2.4-23.5 4.3-37 4.3-12 0-23.5-1.5-31.1-5.8l-.4-.2-.1-.4c-1.3-4.2-3.3-8.2-3.3-13.9v-.1c0-1.1.1-2.3.2-3.5l.1-.9 1-.1c10-.6 20.6-2.4 30.9-2.4 5.5 0 11 .5 16.1 2.1l.4.1.3-.3c9.3-10.4 13.1-26.2 20.8-38.8l.2-.4-.3-.3c-2.6-2.8-5.4-4.6-8.4-5.8-3-1.1-6.2-1.6-9.7-1.6h-.2c-6.2 0-13.3 1.5-20.9 3-7.7 1.5-15.9 3-24.7 3-1 0-1.9 0-2.9-.1h-1.2V57.8l.9-.2c4.1-1.1 8.5-1.5 12.9-1.5 7.5 0 15 1.2 21 2.6l.3.1.2-.2c4.6-4.2 7.8-9.7 10.7-15.7 2.9-5.9 5.4-12.3 8.7-18l.2-.4-.3-.3c-2.5-2.7-5-4.5-7.8-5.6-2.8-1.1-5.7-1.5-8.9-1.5h-.2c-5.4 0-11.4 1.3-18 2.7-6.6 1.4-13.8 2.8-21.5 3.1l-3.3.1 2.4-1.9c9.4-7.7 19.2-15.3 31.5-20.6l.6-.3-.3-.6c-1.2-2.2-3.3-3.7-5.8-4.9-2.9-1.3-6.4-2.3-9.9-3.3l-.2-.1-.2.1c-10.3 4.2-20.6 8.7-35.6 9V1l.6-.2-.9-3.1-.6.2.3.5c5.5-2.6 8.3-7.1 8.3-11.4 0-2.4-.9-4.7-2.9-6.6-2-1.8-5-3.2-9.2-3.6l-.5-.1-.1.5c-2.3 10.1-8.2 18.7-15.4 26.7-7.2 8-15.6 15.3-23 22.6l.7.9c5.1-2.5 9.5-6.1 13.8-9.8 6.2-5.2 12.4-10.7 21.1-12.8 3-.7 5.9-.9 8.9-.9 2.8 0 5.5.1 8.2.1h.1c5 0 10-.5 15.2-3.1l2.7-1.4-.9 2.5c-2.8 8.2-8.4 15-16.3 19.8-7.8 4.8-17.8 7.5-29.3 7.5h-.1c-3.8 0-7.8-.3-11.9-.9l-1.1-.2.4 1c2.7 6.2 4 13.3 6.1 19.7 1.2 3.6 2.5 6.9 4.4 9.6 1.9 2.8 4.3 5 7.5 6.5l.3.1.3-.1c4-1.8 14.6-6.1 23.6-6.3h1.3v13.9l-1.1.1c-15.2 1.1-30.2 3.8-45.9 3.8-4.4 0-9-.2-13.5-.8l-1.1-.1.5 1c3.7 7.9 5.9 16.9 9.2 24.9 1.8 4.3 3.9 8.2 6.6 11.4 2.7 3.2 6.2 5.8 10.7 7.5l.3.1.3-.2c3.4-3 8.6-4.2 14.1-4.8 6.1-.7 12.8-.7 18.6-1.3l1.6-.2-.2 1.3.9.1.6.1.4-2.9-3.1.3c-5.7.6-12.4.6-18.6 1.3-5.6.6-11 1.8-14.8 5.1l.4.4.2-.6c-4.3-1.5-7.5-4-10.2-7.1-2.6-3.1-4.7-6.9-6.4-11.1-3.3-7.8-5.5-16.9-9.3-24.9l-.6.2v.8c4.6.5 9.2.8 13.7.8 15.9 0 30.9-2.7 46-3.8l2.3-.2V57.6h-2.5c-9.4.2-20 4.7-24 6.5l.3.5.3-.5c-3-1.4-5.2-3.4-7-6.1-1.8-2.6-3.1-5.8-4.3-9.3-2.1-6.3-3.4-13.5-6.2-19.8l-.6.2-.1.6c4.2.6 8.2.9 12.1.9h.1c11.6 0 21.9-2.8 29.9-7.7S186.9 11 189.8 2.5l1.8-5.3-5.4 2.8c-5 2.5-9.7 3-14.7 3h-.1c-2.7 0-5.4-.1-8.2-.1-3 0-6 .2-9.2.9-9 2.2-15.4 7.8-21.6 13.1-4.4 3.7-8.6 7.3-13.6 9.7l.3.5.4.4c7.3-7.3 15.8-14.6 23-22.7 7.2-8.1 13.3-16.9 15.7-27.2l-.6-.1-.1.6c4.1.4 6.8 1.7 8.5 3.3 1.7 1.6 2.5 3.6 2.5 5.8h.6-.6c0 3.7-2.6 7.9-7.7 10.3l-.5.2 1.2 4h.5c15.3-.3 25.8-5 36-9.1l-.2-.5-.2.6c3.5 1.1 7 2 9.8 3.3 2.5 1.2 4.2 2.5 5.3 4.4l.5-.3-.2-.5c-12.5 5.4-22.3 13.1-31.8 20.8l-5.1 4.1 6.8-.3c7.8-.3 15.1-1.8 21.7-3.1 6.6-1.4 12.6-2.7 17.7-2.6h.1c3.1 0 5.8.4 8.4 1.4 2.6 1 5 2.7 7.3 5.3l.5-.4-.5-.3c-3.3 5.9-5.8 12.2-8.7 18.1-2.9 5.9-6 11.3-10.4 15.3l.4.4.1-.6c-6.1-1.4-13.7-2.6-21.3-2.6-4.5 0-9.1.4-13.3 1.5l-1.8.5v14.3l2.4.1c1 0 2 .1 3 .1 8.9 0 17.3-1.5 25-3 7.7-1.5 14.6-3 20.7-3h.2c3.4 0 6.4.4 9.3 1.5 2.8 1.1 5.4 2.8 7.9 5.5l.5-.4-.5-.3c-7.8 12.9-11.6 28.6-20.7 38.6l.5.4.2-.6c-5.3-1.6-10.9-2.2-16.5-2.2-10.4 0-21 1.8-30.9 2.5l-2 .1-.2 1.8c-.2 1.3-.3 2.5-.3 3.7v.1c0 6 2 10.2 3.3 14.2l.2.6.1.2.8.5c7.9 4.4 19.6 5.9 31.7 5.9 13.6 0 27.6-1.9 37.3-4.3l.2-.1.2-.1c2.5-1.3 4.2-3.2 5.4-5.3 1.2-2.1 1.9-4.3 2.7-6.4.9-2.8 1.8-5.4 3.1-7.2l-.5-.3-.6.1c.7 5.1 2.5 9.2 4.4 13 1.9 3.8 4 7.3 5.3 11.1l.6-.2-.1-.6c-12.1 2.8-32.4 5.8-51.6 5.8h-.2c-13.2 0-25.8-1.5-34.9-5.2-4.5-1.9-8.1-4.3-10.6-7.3s-3.8-6.7-3.9-11.3c0-1.1.1-2.3.3-3.6l-.5-.4zM266 110v.6h1.9v-1.2H266v1.2-.6.6h1.9v-1.2H266v1.2-.6zM142.9 26.8v.6c20.3 0 35.3-8.6 41.8-22l.6-1.3-1.3.4c-4.3 1.4-8.4 1.7-12.3 1.7h-.1c-2.9 0-5.7-.2-8.4-.2-2.8 0-5.5.2-8.2.8-7.9 1.9-13.8 7-20 12.3-2.3 1.9-4.6 3.9-7.1 5.7l-1.1.8 1.3.3c5.2 1 10.1 1.4 14.8 1.4v-1.1c-4.6 0-9.5-.5-14.6-1.4l-.1.6.4.5c2.5-1.9 4.9-3.9 7.2-5.8 6.2-5.3 12-10.2 19.5-12 2.5-.6 5.1-.8 7.9-.8 2.7 0 5.4.1 8.4.1h.1c4 0 8.3-.3 12.7-1.8l-.2-.6-.6-.2c-6.2 13-20.8 21.3-40.7 21.4v.6zm-4.9 86.4l.6-.2c-4.1-9.4-9.4-18.2-10.5-30.6l-.1-1.1h2.2c15.4 0 27.7-2.8 42.2-3.9l1.4-.1v12.5l-1 .2c-10.5 2-21.2 4-32.9 5l-1.3.1.9.9c.9.9 2 1.5 3.2 1.9 1.2.4 2.6.5 4.1.5h.2c3.6 0 7.9-1 12.2-2 4.3-1 8.8-1.9 12.7-2h.7l1.2.1V111H170.8c-11.1 0-19.9 2.2-31 2.7h-.9l-.3-.7-.6.2-.6.2.5 1.1.2.4 1.8-.1c11.2-.5 20-2.7 30.9-2.7H172.5l2.5.1V93.3l-2.3-.1v.6-.6h-.8c-4.1 0-8.6 1-13 2-4.3 1-8.5 1.9-11.9 1.9h-.2v.6-.6c-1.5 0-2.7-.2-3.8-.5-1-.3-1.9-.8-2.7-1.5l-.4.4.1.6c11.8-1.1 22.5-3 33-5.1l2-.4V75.8l-2.7.2c-14.6 1.1-26.9 3.9-42.1 3.9h-3.6l.2 2.4c1.2 12.7 6.5 21.6 10.6 30.9h.6zm3-2.3v.6c10.1-.5 18.6-2.6 29.6-2.6h.6V96.5h-.6c-3.5.2-7.5 1.1-11.6 2.1-4.1.9-8.4 1.8-12.2 1.8h-.3c-2.2 0-4.4-.4-6.3-1.3-1.9-.9-3.5-2.4-4.5-4.5l-.7-1.3 1.7-.1c12.2-.9 23.2-2.9 34.1-5l.5-.1v-8.6l-.7.1c-13.1 1.1-24.8 3.7-39.2 3.8h-.7l.1.7c1.4 10.6 5.8 18.5 9.7 27.1l.2.4h.4l-.1-.7.6-.2c-3.9-8.7-8.3-16.5-9.6-26.8l-.6.1v.6c14.6-.1 26.4-2.7 39.3-3.8l-.1-.6h-.6v7.4h.6l-.1-.6c-10.9 2.1-21.9 4-34 4.9l-3.5.3 1.5 2.9.5-.3-.5.3c1.2 2.4 3 4 5.1 5 2.1 1 4.5 1.5 6.8 1.5h.3v-.6.6c4 0 8.3-.9 12.4-1.9 4.1-.9 8.1-1.9 11.4-2v-.6h-.6v11.2h.6v-.6c-11.2 0-19.8 2.1-29.7 2.6l.2.6.6-.2-.6.2zm41.6-17.8l.3.5 1-.5c5.7-2.6 13.4-2.7 21-3.1 6.7-.3 13.1-.7 17.5-2.6l.7-.3-.4-.6c-1.2-1.6-2.5-2.6-4-3.3-1.5-.6-3.1-.9-4.9-.9h-.2c-4.1 0-8.9 1.5-13.9 3s-10.2 3-15 3.2v.6-.6h-1.3V76.1l1-.1c15.8-2.2 31.6-4.6 47.7-6.6l1.1-.1.3.9c.5 1.7.7 3.4.7 5.1h.6-.6c0 4.9-1.8 9.6-3.7 14.3-1.9 4.7-4 9.3-4.4 14l-.1 1.2-1.4-.3c-2.3-.5-4.6-.8-7-.8h-.2c-10.2 0-21.1 4.4-32.7 4.8h-1.3V93.1h-.8l.3.5-.3-.5h-.6v16.5l2.5-.1c11.9-.4 22.8-4.8 32.7-4.8h.2c2.3 0 4.5.2 6.7.7l2.8.7.3-2.6c.4-4.4 2.4-9 4.3-13.6 1.9-4.7 3.8-9.5 3.8-14.7 0-1.8-.2-3.6-.8-5.4l-.6-1.9-2.1.3c-16.1 2-31.9 4.4-47.7 6.6l-2.1.3v14.7l2.5-.1c5.1-.2 10.3-1.7 15.3-3.2 5-1.5 9.7-2.9 13.5-2.9h.2c1.7 0 3.2.3 4.5.8 1.3.6 2.4 1.4 3.5 2.9l.5-.4-.3-.5c-4 1.8-10.4 2.2-17.1 2.5-7.5.4-15.4.5-21.5 3.2l-1 .5-.4.2v.4h.9zm3.7 12.5v.6c10.3-.7 20.6-4.6 31-4.7 1.9 0 3.7.1 5.6.4l.6.1.1-.6c.8-4.6 2.8-9.1 4.5-13.4 1.8-4.3 3.3-8.5 3.3-12.7v-.2c0-1-.1-2-.3-3.1l-.1-.6-.6.1c-15 1.9-29.6 4.1-44.4 6.1l-.5.1v8.6l.7-.1c4.2-.4 8.8-1.9 13.5-3.3 4.7-1.4 9.4-2.7 13.7-2.7h.3c4.7 0 9.1 1.9 11.9 6.7l.5.8-.9.5c-5.2 3.1-12.8 3.4-20.4 3.8-7 .3-14.1.6-18.9 2.4l-.4.1V106h.7l.1-.4h.6V95.2h-.6l.2.6c4.5-1.7 11.5-2 18.5-2.3 7.6-.4 15.3-.7 21-4l1.9-1.1-1.1-1.8-.5.3.5-.3c-2.9-5.2-7.9-7.4-13-7.3h-.3c-4.6.1-9.4 1.4-14.1 2.8-4.7 1.4-9.3 2.9-13.3 3.3l.1.6h.6v-7.4h-.6l.1.6c14.8-2.1 29.4-4.3 44.3-6.1l-.1-.6-.6.1c.2.9.3 1.9.3 2.8v.2c0 3.9-1.5 7.9-3.2 12.2-1.7 4.3-3.7 8.8-4.6 13.6l.6.1.1-.6c-2-.3-3.9-.5-5.8-.5-10.7.1-21 4-31.1 4.7l.1.5h.6-.6zm-36.2-46.7v-.6l-1.5-.1.4-1.2c.2-.6.2-1.2.2-1.6 0-.5-.1-1-.2-1.4-.1-.4-.4-.8-.6-1.3-.5-.9-1-2-1-3.5 0-.4 0-.8.1-1.3l.2-.8h1c8.3-.4 14.8-2.5 23.9-2.6h1.3V55.7l-1 .2c-6.4 1.1-12.4 2.7-20.3 2.7h-2.3l-.2.3v.6h2.4c8.1 0 14.2-1.7 20.5-2.7l2-.3V43.1h-2.5c-9.3.1-15.9 2.3-23.9 2.6l-1.5.1h-.5l-.3 1.8c-.1.5-.1 1-.1 1.5h.6-.6c0 1.8.7 3.1 1.2 4 .2.5.4.8.5 1.1.1.3.2.6.2 1.1 0 .4 0 .8-.2 1.3l-.7 2.6 3 .1-.1-.4zm2.3-3.3v.6c6.9 0 12.4-1.3 18.3-2.4l.5-.1v-7.3h-.6c-7.1.3-13 1.9-20.2 2.5h-.6l.1.6c.1.9.4 1.5.8 2.3.5.9 1 2 1 3.5h.6-.6v.8h.8V55h-.2v.6h.6v-.2c0-1.8-.7-3.1-1.1-4-.4-.8-.6-1.2-.7-1.9l-.6.1v.6c7.4-.6 13.2-2.2 20.2-2.5v-.6h-.6v6.2h.6l-.1-.6c-6 1.1-11.3 2.4-18.1 2.4v.5zm31.7-14.3l.1.6 1.6-.2c3.6-.5 7.4-.8 10.9-1.2 3.6-.4 6.9-1 9.5-2l.6-.2-.3-.6c-.7-1.4-1.5-2.3-2.5-2.9-1-.5-2.2-.7-3.5-.7h-.1c-2 0-4.3.5-6.8 1.2-2.4.6-5 1.4-7.4 1.9l-1.4.3-.1-1.2c-.1-1.2-.3-2.1-.7-2.9-.4-.7-.9-1.3-1.6-1.5l-.2.5.3-.5-1.9-.8 1.8-1c6.8-3.7 18.8-6.1 29.3-6.2 3.2 0 6.2.2 8.9.7l.1-.6-.6-.1-.4 1.6 1.2.3.3-1 .4.1v1c0 5-1.5 8.7-3 12.2s-2.9 6.9-3 11.4v1.2l-1.4-.2c-.8-.1-1.6-.1-2.5-.1h-.1c-6.8 0-16.1 2.5-25.5 2.8h-1.3V41.3h-.7l.1.6-.1-.6h-.6v12.9l2.5-.1c9.6-.3 18.9-2.8 25.5-2.8h.1c.8 0 1.6 0 2.3.1l2.7.3.1-2.5c.1-4.3 1.4-7.4 2.9-11 1.5-3.5 3-7.4 3-12.6v-2l-2.5-.5-.5 2.2 1.2.3.5-2.2-.6-.1c-2.8-.5-5.9-.8-9.1-.8-10.7 0-22.8 2.5-29.9 6.3l-3.9 2.1 4.1 1.8c.4.2.7.4 1 1 .3.5.5 1.3.6 2.4l.2 2.5 2.8-.5c2.5-.5 5.1-1.3 7.5-1.9 2.4-.6 4.7-1.1 6.5-1.1h.1v-.6.6c1.3.1 2.2.2 3 .6.7.4 1.4 1 2 2.3h.4l-.2-.5c-2.5 1-5.7 1.5-9.2 1.9-3.5.4-7.3.7-11 1.2l-2.1.3v.5h.6zm3.7 8.9v.6c8.4-.5 16.9-2.7 23.8-2.7h1.5l.1-.6c.4-4 1.8-7.2 3-10.3 1.3-3.2 2.6-6.3 2.8-10.3v-.5l-.6-.1c-2.1-.3-4.4-.4-6.8-.4h-.2c-8.8 0-19.1 2-25.6 4.7l-.7.3.5.6c.6.8 1 1.7 1.2 2.7l.1.6.6-.2c4.1-1 8.7-2.6 12.9-2.7h.4c1.8 0 3.7.5 5.2 1.6s2.7 2.7 3.4 4.9l.2.8-.8.4c-5.8 2.9-13.9 3-21.2 3.9l-.5.1v7.2h.6l.1-.6h.6v-6.1h-.6l.1.6c7.2-.9 15.4-1 21.6-4l1.7-.9-.5-1.7-.6.2.6-.2c-.7-2.5-2.1-4.4-3.8-5.6-1.7-1.2-3.8-1.8-5.9-1.8h-.4v.6-.6c-4.5 0-9.2 1.7-13.2 2.7l.1.6.6-.1c-.3-1.1-.7-2.2-1.5-3.1l-.5.4.2.5c6.2-2.7 16.4-4.6 25.1-4.6h.2c2.4 0 4.6.1 6.6.4l.1-.6h-.6c-.2 3.8-1.4 6.7-2.7 9.9-1.3 3.1-2.7 6.4-3.1 10.7l.6.1V47h-.9c-7.2 0-15.6 2.2-23.9 2.7l.1.5h.6-.6zm-45.4-7.7l.6.1c.1-.5.1-.8.1-1.2 0-.7-.1-1.2-.4-1.7-.2-.5-.6-.9-1-1.4-.8-1-1.8-2.3-1.8-4.3v-.4l.1-1.2 1.4.3c1.3.3 2.6.4 4 .4h.1c3.1 0 6.4-.6 9.7-1.2 3.2-.6 6.3-1.2 9-1.2 2.1 0 4.2.4 5.7 1.8s2.2 3.5 2.2 6.4v.1l.1.8-.9.2c-8.3 2-17.3 3.3-27 4l-1.6.1.3-1.3-.6-.3-.6-.1-.6 2.8 3.2-.2c9.8-.7 18.9-2 27.3-4l1.9-.5-.1-1.8v-.1h-.6.6c0-3.1-.7-5.5-2.5-7.2-1.8-1.7-4.3-2.1-6.6-2.1h-.1c-2.9 0-6.1.7-9.3 1.3-3.2.6-6.4 1.2-9.4 1.2h-.1c-1.3 0-2.6-.1-3.7-.4l-2.7-.6-.3 2.5v.6h.6-.6v.1c0 2.4 1.2 4 2 5l.5-.4-.5.4c.4.5.7.9.9 1.3.2.3.3.7.3 1.2h.6-.6c0 .3 0 .6-.1 1h.5zm1.9-5.8l-.5.4c.7.9 1.7 2.2 1.8 3.9v.6l.6-.1c8.2-.7 15.9-1.8 23-3.4l.5-.1v-.5c-.2-2-.7-3.2-1.5-3.9-.4-.4-1-.7-1.6-.9-.6-.2-1.4-.3-2.3-.3h-.2c-2.3 0-5.3.6-8.5 1.2s-6.7 1.2-10.2 1.2c-.7 0-1.3 0-2-.1l-1.1-.1.5 1c.2.4.5.8.9 1.3l.6-.2.5-.3c-.4-.5-.6-.8-.8-1.1l-.5.3v.6c.7.1 1.4.1 2.1.1 3.6 0 7.2-.6 10.4-1.3 3.2-.6 6.1-1.2 8.3-1.2h.1c.8 0 1.5.1 2 .2s.8.3 1.1.6c.4.4.9 1.3 1.1 3.1h.6l-.2-.7c-7 1.6-14.7 2.7-22.8 3.4l.1.6h.6c-.1-2.2-1.3-3.7-2-4.6l-.6.3.5-.3-.5.3z"/><path clip-path="url(#b)" fill="#AA182C" d="M-13.3 88.6l.7.1c.7-5.2 2.5-9.9 5.7-13.7C-3.7 71.2.8 68.2 7 66.4l2.4-.6.9-.2-.3-.8c-2.3-4.8-4.4-10-6.7-14.5-2.7-5.2-5.9-9.2-10.2-10.6l-.2.6.2-.6-.8-.3v-.8c.2-5.5 2.1-10.1 5.3-14.1 3.1-4.1 7.4-7.6 12-10.8C18.9 7.2 30 1.7 38-5.1l1.9-1.6.4 2.2C41.1.9 42.5 6 44.3 11c5 13.6 12.7 25.8 19 39l.3.5L75 47.2l-.4-.7C70.9 39 62.5 31.1 60.1 29.1l-.5.5.5-.5-.4-.4.1-.5c.6-4.2 2.6-7.7 5.4-10.7 2.9-3 6.6-5.6 10.6-8C83.8 4.7 93 .6 99.3-4.7l.6-.5.7-.6-.8-.5c-3.9-2.5-7.5-5.4-10.3-9.3l-2-2.8 3.6 1.2C113.7-9.4 137 4.2 161.2 4.3c2.7 0 5.4-.2 8.1-.5l1.2-.2.3 1c.6 2 .9 3.9.9 5.7 0 3.4-1.1 6.2-2.9 8.5-1.8 2.2-4.3 3.8-7.2 4.6-1.6.5-3.3.7-5.1.7-2.7 0-5.4-.5-8-1.6l-1.8-.7.9 1.7c5.3 10.1 12.6 16.7 19.9 23.7l.3.3v.4c-.1 3.7.1 7.6-.6 11.2-.7 3.6-2.4 7.1-6.2 9.5l-1 .6-.8-.8c-8.9-8.5-19.3-14.5-30.1-20.1l-1.9-1 1 1.9c5.8 11.2 14.3 20.3 17.8 29.5.9 2.4 1.4 4.8 1.4 7.3 0 4.3-1.5 8.7-5.3 13.2l-.5.6-.8-.1c-15.9-2.3-34.5-.6-48.8-7.3l-.7-.4v-.6c-.3-6-1.4-13.5-4-20.4-1.3-3.4-2.9-6.7-4.9-9.6l-.3-.4L72 63.9l.2.7.3.9c2.8 7.8 7.3 14.7 11.6 21.2s8.5 12.5 10.7 18.6c1 2.7 1.6 5.5 1.6 8.3 0 4.5-1.5 9-5.2 13.6l-.5.6-.9-.2c-8.8-1.6-18.4-1.8-27.9-2.3-9.5-.6-19-1.5-27.4-4.5l-.8-.3v-.8c0-.6.1-1.3.1-1.9 0-4.7-1.1-9.3-2.8-13.9-3.1-8.6-8.4-17.1-12.5-25.8l-.2-.5-.6.1-2.4.6C9.6 80 6 82.7 1.6 85.3l-.2.1-.1.3c-.5 2-.8 4.2-.8 6.6 0 6.5 1.8 14.1 4.6 21.7 4.4 11.9 11.1 23.9 16.9 31.5l.1.1.1.1c1.3 1 2.9 1.6 4.7 2 1.8.3 3.8.4 6 .4h2.6v-.7.7h3.8c4.2 0 8.4.4 11.8 2.7l1.7 1.2-2.1.6c-7 2.1-11.7 5.3-16.1 8.8-4.4 3.4-8.3 7.1-13.9 10.3l-1.1.6-.7-1C11.4 161.1.2 142.6-6.7 123.8c-3.7-10-6.1-20.1-6.1-29.1 0-2.1.1-4.1.4-6l-.9-.1-.7-.1c-.3 2-.4 4.1-.4 6.2 0 9.2 2.5 19.5 6.2 29.6 7 19 18.2 37.6 25.7 47.8l1.5 2 2.2-1.2c5.8-3.3 9.8-7 14.1-10.4 4.3-3.4 8.8-6.5 15.6-8.5l4.8-1.5-4-2.8c-3.8-2.6-8.3-2.9-12.6-2.9h-6.3c-2.1 0-4-.1-5.7-.4-1.7-.3-3.1-.8-4.1-1.7l-.4.5.6-.4c-5.7-7.5-12.4-19.4-16.7-31.2-2.8-7.5-4.5-15-4.5-21.3 0-2.3.2-4.4.7-6.3l-.7-.1.4.6c4.4-2.7 7.9-5.2 13.5-6.8.7-.2 1.5-.4 2.3-.6l-.2-.7-.6.3c4.1 8.7 9.3 17.3 12.4 25.7 1.7 4.6 2.7 9 2.7 13.5 0 .6 0 1.2-.1 1.8l-.1 1.3v.5l1.8.7c8.6 3.1 18.2 4 27.8 4.6 9.6.6 19.2.8 27.8 2.3l1.3.2.4.1 1-1.3c3.9-4.8 5.5-9.7 5.5-14.5 0-3-.6-5.9-1.7-8.7-2.3-6.3-6.6-12.4-10.9-18.9-4.3-6.5-8.7-13.3-11.5-20.9l-.3-.9-.7.2.2.7 9-2.6-.2-.7-.6.4c1.9 2.7 3.5 5.9 4.7 9.3 2.5 6.7 3.6 14.2 3.9 20l.1 1v.4l1.4.6c14.9 6.8 33.6 5 49.2 7.4l1.2.2.4.1 1-1.2c3.9-4.7 5.6-9.5 5.6-14 0-2.7-.5-5.3-1.5-7.8-3.6-9.6-12.1-18.7-17.8-29.7l-.6.3-.3.6c10.7 5.5 21 11.5 29.8 19.8l1.6 1.5 1.9-1.2c4.3-2.6 6.1-6.5 6.9-10.4.7-3.9.5-7.8.6-11.4v-1l-.8-.7c-7.3-7.1-14.5-13.5-19.7-23.3l-.6.3-.3.6c2.8 1.2 5.7 1.7 8.6 1.7 1.9 0 3.7-.3 5.5-.8l-.2-.7.2.7c3.2-.9 6-2.6 7.9-5.1 2-2.5 3.2-5.6 3.2-9.3 0-1.9-.3-3.9-1-6.1l-.7.2.7-.2-.6-2.1-2.4.3c-2.6.4-5.3.5-7.9.5-23.6 0-46.8-13.5-69.6-21.3L83.8-21l4.5 6.3c2.9 4 6.7 7.1 10.7 9.6l.4-.6-.5-.5-.6.5c-6 5.1-15.2 9.2-23.3 14-4 2.4-7.9 5.1-10.9 8.3-3 3.2-5.2 6.9-5.8 11.4l-.1.8v.4l1 .9C61.5 32 69.9 39.9 73.4 47l.6-.3-.2-.7-10 2.9.2.7.6-.3c-6.4-13.2-14.1-25.4-19-38.8-1.8-4.9-3.2-9.9-4.1-15.2l-.8-4.6L37-6.1C29.3.5 18.2 6 8.7 12.6 4 15.8-.4 19.4-3.6 23.7c-3.2 4.2-5.4 9.1-5.5 14.9v1.7l1.8.6c3.7 1.2 6.7 4.9 9.4 9.9 2.3 4.4 4.3 9.6 6.7 14.5l.6-.3-.2-.7c-.8.2-1.7.4-2.5.6-6.4 1.8-11.3 5-14.6 9.1-3.4 4.1-5.3 9-6 14.4l.6.2zm25.8-20.5l-.1-.7c-1.6.3-3.1.6-4.5 1-5.6 1.6-9.8 4.3-12.7 7.8-2.8 3.5-4.4 7.8-5.2 12.7-.3 1.8-.4 3.7-.4 5.7 0 8.7 2.4 18.6 6 28.5 6.5 17.7 16.8 35.2 24.2 45.5l.4.5.6-.3c4.2-2.6 7.6-5.7 11.3-8.6 3.7-3 7.8-5.9 13.3-8.2l2-.8-2.1-.5c-2-.4-4.2-.5-6.6-.5-1.1 0-2.1 0-3.2.1v.7-.7h-2.9c-4.5 0-9-.4-12.5-3.2l-.4.5.5-.5-.1-.1-.1-.1-.6.4.6-.4c-6-7.9-12.9-20-17.3-32.2C-.2 107-2 99.2-2 92.4c0-2.8.3-5.5 1-7.9l.1-.4.4-.2C4 81.3 8 78.2 14.7 76.3c1.3-.4 2.7-.7 4.3-1l1.1-.2.4.9c4.1 9 9.7 18 13.2 27.3 1.7 4.8 2.9 9.6 2.9 14.6v1.3l.5.2c15.2 5 34.8 3.2 52.2 6l.4.1.2-.4c2.8-3.9 4-7.7 4-11.4 0-2.6-.6-5.1-1.5-7.7-2.1-5.8-6.2-11.7-10.5-18.2C77.5 81.2 73 74.2 70 66.1l-.9-2.7-.3-1 14.4-4.1.6.7c2.6 3.3 4.5 7.2 6 11.3 2.5 6.8 3.6 14 4 20v.4l.4.2c12.8 5.5 30.1 4.3 45.7 6.4l.4.1.2-.3c2.9-3.8 4.1-7.4 4.1-10.9 0-2.3-.5-4.5-1.3-6.8-1.8-5-5.3-10-9.1-15.6s-7.9-11.7-10.8-18.6l-1.2-2.8 3.1 1.5c12.1 6 24.2 12.4 34.5 21.9l.5.4.5-.4c2.2-1.9 3.3-4.2 3.8-7 .6-3.1.5-6.7.6-10.2v-.3l-.2-.2c-8.3-8-17-15.8-22.4-29.4l-.7.2.4.6 3.3-1.9-.4-.6-.5.5c3.6 3 7.8 4.4 11.8 4.4 1.5 0 2.9-.2 4.2-.6 2.3-.7 4.4-1.9 5.9-3.7 1.5-1.8 2.4-4.2 2.4-7.1 0-1.2-.1-2.4-.4-3.7l-.1-.8-.6.1c-2.2.2-4.4.3-6.6.3-22.5 0-43.7-11.1-63.7-18.8l-.7 1.1c4.6 3.8 10.3 6.6 16.1 9.3 8.2 3.9 16.6 7.7 21.9 14.9 1.8 2.5 3 5.1 4 7.7.9 2.6 1.7 5.1 2.6 7.7 1.7 4.6 3.9 9 8.7 12.9l2.3 1.8-3.1.1h-1c-20.7 0-38.5-12-46-32.5-1.4-3.4-2.4-7.1-3.1-11l-.2-1.1-.9.7c-6.3 4.4-14.2 8-20.9 12.1-3.8 2.3-7.1 4.6-9.7 7.3-2.6 2.6-4.4 5.6-5.1 9.1l-.1.3.3.3c3.4 3 12 11.2 15.2 19.3l.4 1-16.2 4.6-.5-1C55.2 38.7 47.1 26 41.8 11.6c-1.5-4-2.7-8.2-3.6-12.6L38-2l-.9.7c-7.9 6-17.7 11.1-25.9 16.7C6.8 18.5 3 21.6.1 25.2c-2.9 3.6-4.8 7.6-5.1 12.3v.5l.4.2C0 40.3 3 44.6 5.6 49.4c2.8 5.3 5 11.4 7.8 16.5l.7 1.2-1.6.3v.7l.1.7 3.5-.6-1.5-2.9c-2.7-5-4.9-11.1-7.8-16.5C4.2 43.9 1 39.3-4.1 37l-.3.6.7.1c.4-4.4 2.1-8.1 4.8-11.6 2.7-3.4 6.5-6.6 10.8-9.6 8-5.6 17.9-10.6 25.9-16.8l-.4-.5-.7.1C37.8 3.7 39 8 40.5 12.1 45.8 26.6 54 39.4 60.4 52.8l1 2 18.8-5.4-.9-2.4c-3.4-8.5-12.2-16.7-15.6-19.8l-.5.5.7.1c.6-3.1 2.2-5.8 4.7-8.4 2.5-2.5 5.7-4.8 9.5-7 6.7-4 14.6-7.6 21-12.2l-.4-.5-.7.1c.7 4 1.7 7.8 3 11.4 7.6 21 26.1 33.4 47.3 33.4h1.1l6.9-.1-5.2-4.2c-4.6-3.7-6.7-7.8-8.3-12.3-.9-2.5-1.7-5.1-2.6-7.7-1-2.7-2.2-5.5-4.2-8.1-5.6-7.5-14.3-11.5-22.4-15.3-5.8-2.7-11.4-5.5-15.8-9.2l-.5.5-.3.6c20 7.7 41.2 18.9 64.3 18.9 2.2 0 4.5-.1 6.8-.3l-.1-.7-.7.1c.3 1.3.4 2.4.4 3.5 0 2.7-.8 4.7-2.1 6.3-1.3 1.5-3.1 2.6-5.2 3.3l.2.7-.2-.7c-1.2.3-2.5.5-3.8.5-3.6 0-7.5-1.3-10.8-4.1l-.4-.3-4.2 2.4.2.5c5.5 13.9 14.4 21.9 22.7 29.9l.5-.5h-.7c-.1 3.6 0 7.1-.5 10-.5 2.6-1.4 4.6-3.4 6.2l.5.5.5-.5c-10.5-9.6-22.7-16-34.9-22.1l-6.5-3.2 2.6 6.3c3 7.1 7.2 13.3 11 18.9 3.8 5.6 7.3 10.6 9 15.3.8 2.2 1.2 4.3 1.2 6.4 0 3.2-1.1 6.5-3.8 10.1l.6.4.1-.7c-15.9-2-33-.9-45.3-6.3l-.3.6h.7c-.4-6-1.6-13.4-4.1-20.3-1.5-4.1-3.5-8.1-6.2-11.6L84 56.8l-16.7 4.8.7 2.3.9 2.7c3 8.2 7.6 15.4 12 21.9C85 95 89.1 100.9 91 106.4c.9 2.5 1.4 4.9 1.4 7.3 0 3.4-1.1 6.8-3.8 10.6l.6.4.1-.7c-17.6-2.8-37.2-1-51.9-5.9l-.2.6h.7v-.8c0-5.1-1.2-10.2-3-15-3.5-9.5-9.2-18.6-13.2-27.4l-.9-1.8-2.2.4c-1.6.3-3.1.6-4.5 1-6.9 2-11.1 5.2-15.5 7.8l-.6.4-.2.1-.3.9c-.8 2.6-1.1 5.3-1.1 8.3 0 7 1.9 14.9 4.8 22.7 4.5 12.4 11.5 24.6 17.5 32.6l.1.2v.1l.2.2c3.9 3.1 8.8 3.5 13.4 3.5h6.1c2.3 0 4.5.1 6.3.5l.2-.7-.3-.6c-5.7 2.3-9.9 5.3-13.7 8.4-3.8 3-7.1 6.1-11.2 8.5l.4.6.6-.4C13.5 158 3.2 140.5-3.2 123-6.6 112.9-9 103.1-9 94.7c0-1.9.1-3.8.4-5.5.7-4.8 2.3-8.8 5-12.1 2.7-3.3 6.5-5.7 12-7.3 1.3-.4 2.8-.7 4.3-1l-.2-.7zm37 81.8l-.7.2.7 1.7 1.3-.5-.7-1.7-1.3.5.7-.2-.7.2.7 1.7 1.3-.5-.7-1.7-1.3.5.7-.2zM105.4 9.8l-.7.2c6.8 18.5 21.9 29.4 39.7 30.8l1.7.1-1.1-1.3c-3.1-3.4-4.8-7.1-6.1-10.7-1-2.6-1.7-5.2-2.6-7.7-.9-2.6-2.1-5-3.7-7.2-4.9-6.6-12.8-10.3-21-14.2-3-1.4-6.1-2.9-9.1-4.6l-1.2-.7.2 1.3c.6 5.1 1.7 9.7 3.3 14h.6l.7-.2c-1.5-4.2-2.6-8.7-3.2-13.7l-.8.1-.4.6c3 1.7 6.1 3.2 9.2 4.6 8.2 3.9 15.9 7.5 20.5 13.7 1.5 2.1 2.6 4.4 3.5 6.9.9 2.4 1.6 5 2.6 7.7 1.3 3.7 3.1 7.5 6.4 11.1l.5-.4.1-.7c-17.3-1.4-31.8-11.8-38.5-29.9l-.6.2zM3 34.2l.4.5c9.6-6.9 18.1-14.6 32.2-19.8l1.3-.5.4 1.2c.1.2.2.5.3.7 5.2 14.1 12.6 24.4 18.7 37.2l.5 1.1-13.6 3.9-1 .3-.5-.8C35.8 49.1 30 40 24.9 29.7l-.5-1.1-.7 1c-.8 1.2-1.1 2.4-1.1 3.7 0 1.2.3 2.5.8 3.8 1.2 3.4 3.8 6.9 6.4 10.6 2.6 3.6 5.2 7.4 6.6 11 .1.2.2.4.2.7l.3 1L17.4 66l-.4-1.1c-.2-.5-.3-1-.5-1.5C12.8 53.2 7.3 45.9 3.1 36l-.3-.7.7-.5-.5-.6-.4-.5L1 34.8l.7 1.7C6 46.6 11.5 53.9 15.1 63.9c.2.5.3 1 .5 1.5l.8 2.3 22-6.3-.7-2.3-.7.2.7-.2c-.1-.3-.2-.5-.3-.8-1.4-3.8-4.1-7.6-6.7-11.3-2.6-3.7-5.1-7.2-6.2-10.2l-.5.3.7-.2c-.4-1.3-.7-2.4-.7-3.4 0-1.1.3-2 .9-3l-.6-.4-.6.3c5.2 10.4 11.1 19.5 16.9 28.4l1.1 1.7 2-.6 15.1-4.3-1.2-2.5C51.5 40.1 44.1 29.8 39 16c-.1-.3-.2-.5-.3-.8l-.7.2.7-.2-.9-2.5-2.7 1c-14.4 5.3-23 13.2-32.5 20l.4.5zm3.7 2l-.6.3c4 9 9.2 16.2 12.9 26.2l.2.6 14.4-4.1-.3-.7c-1.4-3.1-3.9-6.5-6.3-10-2.5-3.5-4.9-7-6.2-10.5-.5-1.4-.9-2.9-.9-4.3 0-2.7 1.1-5.4 3.9-7.7l1.4-1.1.7 1.5C31 37.2 37 46.6 43.1 55.9l.3.4 9.9-2.9-.4-.7c-5.7-11.5-12.5-21.4-17.5-34.5l-.3-.7-.7.3C22.8 22.5 15.1 29.2 6.3 35.6l-.4.3.2.5.6-.2.4.5c8.9-6.5 16.4-13 28.1-17.7l-.3-.6-.7.2c5.1 13.3 11.9 23.2 17.6 34.6l.6-.3-.2-.7-8.7 2.5.2.7.6-.4c-6.1-9.3-12-18.6-17.1-29.3l-1.5-3.1-2.7 2.3.5.5-.5-.5c-3.2 2.5-4.5 5.6-4.5 8.7 0 1.6.4 3.3 1 4.8l.7-.2-.7.2c1.4 3.7 3.9 7.3 6.3 10.8 2.5 3.5 4.9 6.8 6.2 9.7l.6-.3-.1-.6-13 3.7.2.7.7-.2C16.6 52 11.3 44.8 7.5 36l-.8.2.4.5-.4-.5zm34.6 32l-.5.5.9.8c4.9 4.3 7.6 11.3 10.6 18.1 2.6 6 5.2 11.8 8.9 15.1l.5.5.5-.5c1.8-2 2.6-4 2.6-6 0-1.2-.3-2.4-.7-3.7-1.3-3.8-4.7-7.7-8.1-11.8-3.4-4.1-7-8.3-8.8-12.7l-.7.3.7-.2-.4-1 14.6-4.2.5.9c7.9 13.7 15.9 27.3 23.6 41.3l.5.8-.9.5c-1.8 1-3.7 1.8-5.7 2.4-4.2 1.2-8.5 1.4-12.9 1.4-4.3 0-8.6-.3-12.8-.3-3.4 0-6.7.2-9.9.8l-1.5.3-.1-1.3c-.1-2.3-.7-4.5-1.4-6.7-1.7-4.7-4.8-9.2-7.9-13.8-3.2-4.6-6.4-9.4-8.6-14.6l-.4-1L41.6 69l-.3-.8-.5.5.5-.5-.2-.7L21.8 73l1 2.4c2.2 5.4 5.6 10.2 8.7 14.8 3.2 4.6 6.2 9 7.8 13.5.8 2.1 1.2 4.1 1.4 6.3l.2 2.9 3.1-.6c3-.6 6.3-.8 9.6-.8 4.2 0 8.5.3 12.8.3 4.5 0 9-.3 13.3-1.5 2-.6 4.1-1.4 6-2.5l2.1-1.2-1.1-2C79 90.6 71 77 63.1 63.3L62 61.5l-17.1 4.9 1 2.4c1.9 4.6 5.6 9 9 13 3.4 4.1 6.7 7.9 7.9 11.4.4 1.2.6 2.2.6 3.3 0 1.7-.6 3.3-2.2 5.1l.5.4.5-.5c-3.4-3-6.1-8.7-8.6-14.7-2.9-6.7-5.7-13.9-10.9-18.6l-.9-.8-.3-.3-.4.1.2 1zM28 75.7l-.6.3c4.3 9.2 12.3 17.3 15.8 26.7.6 1.7 1.1 3.4 1.4 5.2l.1.7.7-.1c2.9-.4 5.9-.5 8.9-.5 4.3 0 8.6.3 12.7.3s8-.3 11.6-1.3c1.2-.3 2.3-.8 3.5-1.3l.7-.3-.3-.6c-7.2-13-14.6-25.6-22-38.4l-.5-.6-10 2.9.4.7c1.9 3.7 5.2 7.4 8.4 11.2 3.2 3.8 6.2 7.7 7.7 11.6.5 1.4.8 2.8.8 4.2 0 3-1.3 6.2-4.6 9l-.8.8-.9-.7c-5.3-3.7-8.3-10.5-11.2-17.3-2.7-6.3-5.4-12.7-9.1-16.5l-.3-.3L27 75.3l.3.7.7-.3.2.7 12.1-3.5-.2-.7-.5.5c3.5 3.5 6.2 9.7 8.9 16.1 3 6.8 5.9 13.8 11.7 17.8l1.9 1.3 1.7-1.5-.5-.5.5.5c3.5-3.1 5.1-6.6 5-10 0-1.6-.3-3.2-.9-4.6-1.6-4.2-4.8-8.1-7.9-12-3.2-3.8-6.4-7.5-8.2-11l-.6.3.2.7 8.6-2.5-.2-.7-.7.4c7.4 12.8 14.8 25.4 22 38.4l.6-.3-.3-.6c-1 .5-2.1.9-3.3 1.2-3.4 1-7.2 1.3-11.2 1.3-4.1 0-8.4-.3-12.7-.3-3 0-6 .1-9.1.5l.1.7.7-.1c-.3-1.9-.8-3.7-1.4-5.5-3.7-9.8-11.7-17.9-15.8-26.8l-.7.2.2.7-.2-.7zm42.3-48.6l.7-.2-.4-1.3 1.5-.1c.8-.1 1.4-.2 1.9-.3 1.2-.4 2-.9 2.9-1.6.9-.7 2-1.6 3.8-2.1.5-.1 1-.2 1.6-.3l1.1-.1.4.9c3.2 7.4 7.9 12.7 11 20.9l.4 1-12 3.4-1.1.3-.5-.8c-3.4-5.5-7.3-10.4-9.9-17.6-.3-.7-.5-1.4-.7-2.1h-.7l-.7.2c.2.7.5 1.5.7 2.2C73 36.9 77 42 80.3 47.4l1.1 1.7 2.1-.6L97 44.6l-.9-2.4c-3.3-8.4-8-13.7-11.1-20.9l-.8-1.8-2.1.3c-.7.1-1.2.2-1.8.4-2.1.6-3.4 1.7-4.3 2.4-.9.7-1.4 1.1-2.4 1.4-.4.1-.9.2-1.6.3l-3.3.3.9 2.9.7-.4zm4.6 1.1l-.7.2c2.3 6.3 5.7 10.9 8.9 16l.3.4 8.5-2.4-.3-.7C88.8 35.2 85 30.5 82 24l-.3-.6-.6.2c-.9.4-1.6.9-2.3 1.5-.9.7-2 1.6-3.8 2.1l-.3.1-.7.2.3.8.6-.1.7-.2-.1-.2-.7.2.2.7.3-.1c2.1-.6 3.4-1.7 4.3-2.4.8-.6 1.2-1 2-1.3l-.3-.6-.6.3c3.1 6.6 7 11.4 9.6 17.6l.7-.3-.2-.7-7.2 2.1.2.7.6-.4c-3.3-5.1-6.6-9.6-8.8-15.7l-.7.3.7-.2-.7.2zm27.2 24l-.6.3.8 1.3c3.5 6.2 6.4 13.5 10.6 17.6l.4.4.5-.4c.9-.7 1.6-1.4 2-2.1.4-.7.6-1.5.6-2.2 0-.8-.2-1.6-.4-2.4-.7-1.9-2.1-3.8-3.6-5.9-1.6-2-3.3-4.1-4.7-6.2l-.7-1.1 1.3-.5c1.3-.5 2.4-1 3.1-1.6.7-.6 1.2-1.3 1.3-2l-.7-.1.7.1.3-2 1.8 1.4c6.5 5 13.4 15.1 16.9 24.6 1.1 2.9 1.8 5.7 2.1 8.3l.7-.1-.1-.7-2 .2.1 1.4 1.3-.1v.2l-1 .3-.2.1c-4.2 1.2-7.9 1.5-11.4 1.5-1.3 0-2.6 0-3.9-.1-1.5-.1-3-.1-4.5-.1-3.1 0-6.2.2-9.7 1.2l-1.4.4-.3-1.2c-.2-.7-.4-1.5-.7-2.3-2.3-6.3-8.3-13.9-11.8-22.5l-.4-1 13.6-3.9v-.8l-.6.3.6-.3-.2-.7-15.1 4.3 1 2.4c3.6 8.7 9.6 16.5 11.8 22.4.3.8.5 1.5.6 2.1l.6 2.6 2.8-.7c3.4-.9 6.4-1.1 9.4-1.1 1.5 0 2.9.1 4.4.1 1.3 0 2.6.1 3.9.1 3.5 0 7.4-.3 11.8-1.5l.2-.1 2.1-.6-.3-2.6-2.7.2.1 1.4 2.7-.2-.1-.7c-.3-2.8-1.1-5.7-2.2-8.6-3.6-9.8-10.5-20-17.4-25.2L112 43l-.7 4.3c-.1.4-.2.7-.8 1.2-.5.4-1.4.9-2.7 1.4l-3 1.1 1.6 2.5c1.4 2.1 3.2 4.3 4.8 6.3 1.6 2 2.9 3.9 3.4 5.5l.7-.2-.7.2c.2.8.4 1.5.4 2 0 .6-.1 1-.4 1.6-.3.5-.8 1.1-1.7 1.7l.4.5.5-.5c-3.9-3.8-6.8-11-10.3-17.3l-1-1.8-.5.2.1.5zM93 58.6l-.6.3c3.4 7.6 8.7 14.5 11.1 20.8.1.3.2.5.3.8l.2.6.6-.1c3.1-.6 5.9-.8 8.5-.8 1.6 0 3.1.1 4.6.1 1.3 0 2.6.1 3.8.1 2.9 0 5.8-.2 9.1-1l.6-.1-.1-.6c-.4-2-1-4.2-1.8-6.4-3-8.1-8.7-16.9-14.1-21.9l-.5-.5-.5.6c-.7.8-1.6 1.5-2.7 2l-.7.4.5.6c2.6 3.4 6 7.1 7.4 10.8.4.9.6 1.8.6 2.8 0 2.6-1.5 5.3-5.1 7.4l-.9.5-.8-.6c-5.2-4.3-8.1-11.7-11.6-18l-.3-.5-8.6 2.3.3.7.7-.3.2.7 7.1-2-.2-.7-.6.3c3.4 6.2 6.3 13.8 11.9 18.4l1.5 1.2 1.7-1-.4-.6.3.6c4-2.2 5.8-5.4 5.8-8.6 0-1.1-.2-2.2-.7-3.3l-.6.3.7-.2c-1.6-4.1-5.1-7.8-7.6-11.2l-.6.4.3.6c1.2-.6 2.3-1.4 3.2-2.4l-.5-.4-.5.5c5.2 4.8 10.9 13.5 13.8 21.4.8 2.1 1.4 4.2 1.7 6.1l.7-.1-.2-.7c-3.1.8-5.9.9-8.7.9-1.2 0-2.5 0-3.8-.1-1.5 0-3-.1-4.6-.1-2.7 0-5.6.2-8.8.8l.1.7.8-.1c-.1-.3-.2-.6-.3-.8-2.4-6.6-7.7-13.5-11.1-20.9l-.6.3.2.7-.2-.7zm-6.1-44l.1.7c.6-.1 1-.2 1.4-.3.8-.2 1.4-.5 1.9-.9s.9-.8 1.4-1.4c.9-1 2.1-2.4 4.5-3.1.2 0 .3-.1.5-.1l1.5-.3.1 1.3c.1 1.3.4 2.5.9 3.8 1 2.9 2.9 5.8 4.7 8.5 1.8 2.7 3.6 5.4 4.5 7.9.4 1 .6 2 .6 2.9 0 1-.2 1.9-.8 2.8-1.1 1.8-3.3 3.1-6.7 4.1h-.1l-1 .3-.6-.8C94.5 33.2 90 25.4 86 16.8l-.6-1.3 1.6-.2-.1-.7-.1-.7-3.5.4 1.4 3c4.1 8.7 8.7 16.6 13.8 23.5l1.2 1.6 2-.7h.1l-.2-.6.2.7c3.6-1 6.2-2.5 7.5-4.7.7-1.1 1-2.3 1-3.5 0-1.2-.3-2.3-.7-3.4-1-2.7-2.8-5.4-4.6-8.1-1.8-2.7-3.6-5.5-4.5-8.2-.4-1.2-.7-2.3-.8-3.5l-.2-2.8-3 .6c-.3 0-.5.1-.6.2-2.8.8-4.3 2.5-5.2 3.5l.5.4-.5-.4c-.5.5-.8.9-1.2 1.2-.4.3-.7.5-1.4.7l.2.7-.3-.8c-.3.1-.7.2-1.2.2l.1.7zm7.4-.2l-.6-.4c-.8 1-2 2.2-4 2.9l-.7.3.3.7c3.5 7.3 7.4 13.9 11.7 19.9l.3.4.5-.2c2.2-.8 3.4-1.7 4-2.6.3-.5.5-1.1.5-1.8s-.2-1.4-.5-2.3c-.8-2.2-2.5-4.7-4.3-7.4-1.8-2.8-3.7-5.8-4.9-8.9l-.6-1.8-.2-1.2-.9.8-1.2 1.2.6.4.5.4c.4-.5.7-.8 1.1-1.1l-.5-.5-.7.2c.2.7.4 1.3.6 1.9 1.2 3.3 3.2 6.4 5 9.2 1.8 2.8 3.5 5.2 4.1 7.1.3.8.4 1.4.4 1.8 0 .5-.1.8-.3 1.1-.3.5-1.2 1.3-3.2 2l.2.6.6-.4C97.9 30.8 94 24.3 90.5 17l-.6.3.2.6c2.4-.8 3.8-2.4 4.6-3.3l-.4-.2.5.4-.5-.4zM293.7 76.5l-.6.3c2 4 3.1 8 3.1 12 0 5.6-2.1 11-7.2 16-.5.5-1.1 1.1-1.7 1.6l-.7.6.8.5c4.8 3.1 9.5 6.7 14.1 9.5s9 4.7 13 4.7c.6 0 1.2 0 1.8-.1l-.1-.7.1.7.9-.1.4.7c2.6 4.2 3.7 8.4 3.7 12.6 0 5.5-1.8 11.1-4.2 16.6-4.3 9.8-10.8 19.5-13.7 29l-.7 2.1-1.6-1.8c-3.9-4.2-8-8-12.4-11.4-12.1-9.5-25.7-16.6-38.7-25l-.5-.3-8 8 .7.5c7.5 4.8 19.3 7.7 22.5 8.4l.6.1.3.5c1.3 2.6 1.8 5.2 1.8 7.8 0 5.2-2.2 10.4-4.9 15.5-4.2 7.7-9.7 15.4-12.1 22.7l-.2.7-.3.8.9.1c4.8.4 9.6 1.3 14.3 3.4l3.3 1.5-3.7.6c-13.3 1.9-27.8 2.4-41.7 4.3-13.8 1.9-27 5.2-37.7 12.9l-.9.7-.8-.7c-4.6-3.9-6.5-8.1-6.5-11.9 0-3.1 1.3-6 3.6-8.3 2.8-2.8 7-4.7 11.8-5.1l2.1-.2-1.8-1.1c-10.3-6.3-20.4-8.7-30.7-11.5l-.5-.1-.3-.4c-2-3.2-4.4-6.5-5.9-9.9-.8-1.8-1.3-3.8-1.3-5.8 0-1.7.4-3.4 1.3-5.1l.5-.9 1.1.3c11.8 3.1 23.5 3.8 35.3 3.8h4.5l-2-1.2c-11.4-7-24-11-32.2-17.5-5.2-4-8.6-9.3-8.6-16.6 0-.9.1-1.9.2-2.8l.1-.7.7-.3c15.1-5.1 30.1-14.9 46.2-15.7h.8l.4.5c3.7 5 9 11 15.1 15.8 3.1 2.4 6.3 4.5 9.7 6l.5.2 7.1-7.1-.6-.5c-.3-.2-.5-.4-.8-.7-13.8-10.8-31.2-15.8-42.1-24.2-5.8-4.5-9.6-10.2-9.6-18.1 0-.8 0-1.6.1-2.4l.1-.7.8-.2c8.5-2.6 16.9-6.8 25.4-10.6s17.2-7.2 26.1-8.4l.9-.1.4.7c2.7 4.7 6.7 8.7 11.4 12.4 7.6 6 17 11 25.5 16.6l.5.3.4-.4c.6-.5 1.2-1.1 1.7-1.6 4.1-4.1 5.7-8 8-12.2l.1-.3-.1-.3c-2.6-7.3-10.3-15.4-19.5-22.7-10.6-8.3-23.3-15.6-32.6-19.6h-.2c-.5-.1-1-.1-1.6-.1-3.6 0-7.3 1.9-11.2 4.1l.3.6-.3-.6c-4.2 2.2-8.5 4.8-13.3 4.8-.5 0-1 0-1.6-.1l-2.3-.3 1.4-1.5c4.8-5 7.1-9.9 8.9-14.8 1.8-4.9 3.1-9.9 6.1-15.1l.6-1 1.2.5C231 25 251.2 36 268 49.1c11 8.6 20.4 18.1 25.1 27.7l.6-.3.6-.3c-4.9-9.9-14.5-19.5-25.5-28.2-16.9-13.2-37.2-24.2-49.6-29.6l-2.4-1-1.2 2.1c-3.1 5.4-4.4 10.5-6.2 15.3-1.7 4.9-3.9 9.5-8.6 14.3l-3.3 3.5 5 .6c.6.1 1.2.1 1.7.1 5.4 0 9.9-2.8 14-5 3.9-2.2 7.5-3.9 10.5-3.9.4 0 .9 0 1.3.1l.1-.7-.3.6c9.2 4 21.8 11.2 32.3 19.4 9.2 7.2 16.7 15.2 19.1 22.1l.7-.2-.6-.3c-2.3 4.3-3.8 8-7.7 11.9-.5.5-1 1-1.6 1.5l.5.5.4-.6c-8.6-5.7-18-10.7-25.4-16.6-4.6-3.6-8.5-7.5-11.1-12l-.7-1.1-.2-.4-1.9.2c-9.2 1.2-18 4.7-26.5 8.5-8.6 3.8-16.9 8-25.3 10.5l-1.2.4-.4.1-.1 1.6c-.1.8-.1 1.7-.1 2.5 0 8.4 4.1 14.5 10.1 19.2 11.2 8.7 28.6 13.6 42 24.2.3.2.5.4.8.6l.5-.5-.5-.5-6.3 6.2.5.5.3-.6c-3.2-1.5-6.4-3.5-9.4-5.9-6-4.7-11.2-10.6-14.9-15.5l-.6-.8-.2-.3-1.5.1c-16.7.8-31.8 10.7-46.6 15.7l-1.2.4-.4.1-.2 1.5c-.1 1-.2 2-.2 3 0 7.7 3.7 13.4 9.2 17.7 8.6 6.7 21.1 10.7 32.4 17.6l.4-.6v-.7h-2.1c-11.7 0-23.3-.6-34.9-3.7l-2.2-.6-1 1.9c-1 1.9-1.4 3.9-1.4 5.7 0 2.2.6 4.3 1.4 6.3 1.6 3.6 4 7 6 10.1l.4.6.1.2 1 .3c10.4 2.8 20.2 5.1 30.4 11.3l.4-.6-.1-.7c-5.1.4-9.6 2.4-12.7 5.5l.5.5-.5-.5c-2.6 2.5-4 5.7-4 9.2 0 4.3 2.2 8.9 7 13l.5-.5-.5.5 1.7 1.5 1.9-1.3c10.3-7.5 23.3-10.7 37-12.6 13.8-1.9 28.3-2.4 41.7-4.3l8.3-1.2-7.5-3.4c-4.8-2.2-9.8-3.2-14.7-3.5l-.1.7.7.2.2-.7c2.2-7 7.8-14.7 12-22.5 2.8-5.2 5-10.6 5.1-16.1 0-2.8-.6-5.6-2-8.4l-.4-.8-.1-.3-1.3-.3c-3.1-.7-14.9-3.6-22-8.2l-.4.6.5.5 7-7-.5-.5-.4.6c13.1 8.5 26.7 15.6 38.6 25 4.3 3.4 8.5 7.1 12.3 11.3l3.3 3.6 1.4-4.5c2.9-9.2 9.3-18.9 13.7-28.8 2.5-5.6 4.3-11.3 4.3-17.1 0-4.5-1.1-9-3.9-13.4l-.7-1.1-.2-.4-1.9.3c-.5.1-1 .1-1.6.1-3.5 0-7.8-1.7-12.3-4.5-4.5-2.7-9.3-6.3-14.1-9.5l-.4.6.5.5c.6-.5 1.2-1.1 1.8-1.6 5.3-5.2 7.6-11.1 7.6-17 0-4.2-1.2-8.5-3.2-12.6l-.7.3zm-10.5 29.2l.4.5c1.2-.9 2.3-1.9 3.3-2.9 4.6-4.6 6.6-9.5 6.6-14.5 0-3.7-1-7.4-2.9-11.3-4.4-9.1-13.7-18.5-24.5-26.9-15.7-12.3-34.7-22.8-46.9-28.3l-.6-.3-.3.6c-2.1 4.1-3.3 8.3-4.8 12.5-1.5 4.2-3.3 8.6-6.8 13l-1.2 1.6 2-.5c2.8-.7 5.7-2.3 8.7-4l-.3-.6.3.6c3.9-2.1 8-4.4 12.6-4.4.8 0 1.6.1 2.4.2l.1-.7-.1.7h.2l.2.1.3-.6-.3.6c9.7 4.1 22.6 11.5 33.5 20 9.7 7.6 17.9 16.2 20.5 24.4l.7-.2-.7.2.1.4-.2.4c-2.4 4.3-4 8.7-8.7 13.4-.9.9-2 1.8-3.1 2.8l-.8.6-.9-.6c-8.7-5.9-18.7-11.1-27-17.6-4.5-3.5-8.4-7.4-11.3-11.9l-.2-.4-.5.1c-16 2.5-31.9 12.9-48.4 18.3h-.6v1.5c0 3.7.8 6.8 2.4 9.5 1.5 2.7 3.7 5 6.4 7.1 5.1 4 12 7.3 19.5 10.9 7.5 3.7 15.4 7.7 22.6 13.3.8.6 1.6 1.2 2.3 1.9l.8.7-10 10-.9-.4c-4.2-1.7-8.1-4.2-11.7-7-6-4.7-11.2-10.5-14.9-15.4l-.2-.3h-.4c-14.2 1-28.4 9.8-43.1 15l-.4.2v1.9c0 3.4.7 6.2 2.1 8.6 1.4 2.4 3.3 4.5 5.7 6.4 4.4 3.5 10.3 6.2 16.8 9.3 6.5 3.1 13.5 6.5 20 11.2l2.6 1.9-3.4.1c-2.7 0-5.4.1-8 .1-11.3 0-22.7-.6-34.3-3.4l-.6-.2-.2.6c-.3.9-.4 1.8-.4 2.7 0 1.7.4 3.3 1.2 5 1.3 3 3.4 5.9 5.4 9l.1.2.3.1c11.7 3.1 23.8 6 36.2 15.3l.4-.5-.6-.3-1.7 3.1.6.3.1-.7c-1.5-.3-2.9-.4-4.3-.4-4.8 0-9 1.7-11.7 4.4-1.8 1.9-3 4.2-3 6.9 0 2.9 1.4 6 4.6 9.2l.4.4.5-.3c10.1-6.7 21.9-10 34.2-11.9 12.3-1.9 25.1-2.5 37-3.7l.1-1.3c-3.8-.8-7.8-1-11.9-1-2.4 0-4.9.1-7.4.2-2.8.1-5.7.2-8.5.2-6.5 0-12.9-.6-19-3.2-3-1.3-5.5-3-7.9-4.9-2.3-1.8-4.4-3.7-6.7-5.4-4.1-3.2-8.5-6-14.9-7.2l-3-.6 2.6-1.4c7.3-4 15.4-6 23.7-6 12.1 0 24.5 4.3 35.5 12.9 3.1 2.4 6.1 5.2 8.9 8.3l.7.8.4-1c2.8-6.7 7.5-13.4 11-19.9 2.7-5.1 4.7-9.9 4.7-14.6 0-2.1-.4-4.1-1.3-6.1l-.1-.3-.3-.1c-4.6-1.1-16.8-4.3-24.2-9.8l-.9-.7 11.3-11.2 1 .7c13.3 8.8 27.6 16.1 40.4 26.1 3.6 2.8 7.1 5.9 10.4 9.2l.8.8.4-1c3.4-8.8 8.9-17.5 12.7-26 2.4-5.4 4-10.7 4-15.8 0-3.6-.8-7.1-2.7-10.6l-.2-.4H314.8c-4.9 0-9.8-2.2-14.5-5.1-5.5-3.3-10.9-7.6-16.2-10.8l-1.3-.8 1.2-.9-.8-.7-.4-.5-2.7 2.1 3 1.8c5.2 3.1 10.6 7.4 16.2 10.8 4.8 2.9 9.9 5.3 15.3 5.3h.9v-.7l-.6.3c1.8 3.2 2.6 6.5 2.6 9.9 0 4.9-1.6 10-3.9 15.3-3.7 8.4-9.3 17.2-12.7 26.1l.7.2.5-.5c-3.3-3.4-6.9-6.5-10.5-9.3-12.9-10.1-27.3-17.5-40.5-26.2l-2-1.3-13.2 13.2 2.2 1.6c7.8 5.8 20 9 24.8 10.1l.2-.7-.6.3c.8 1.8 1.1 3.7 1.1 5.6 0 4.3-1.8 9-4.5 14-3.4 6.4-8.2 13.1-11.1 20l.6.3.5-.4c-2.9-3.2-5.9-6-9.1-8.5-11.2-8.8-24-13.2-36.4-13.2-8.5 0-16.8 2.1-24.4 6.2l-5.9 3.2 6.8 1.3c6.1 1.2 10.3 3.8 14.3 6.9 2.2 1.7 4.4 3.6 6.7 5.4 2.4 1.9 5.1 3.7 8.2 5.1 6.4 2.8 13 3.3 19.6 3.3 2.9 0 5.7-.1 8.5-.2 2.5-.1 4.9-.2 7.3-.2 4 0 7.9.2 11.6 1l.1-.7-.1-.7c-11.9 1.3-24.7 1.8-37.1 3.8-12.4 1.9-24.5 5.2-34.8 12.1l.4.6.5-.5c-3-3-4.2-5.8-4.2-8.3 0-2.3 1-4.3 2.6-6l-.5-.5.5.5c2.3-2.3 6.2-3.9 10.7-3.9 1.3 0 2.6.1 4 .4l.5.1 2.3-4-.5-.4c-12.6-9.5-25-12.4-36.7-15.5l-.2.7.6-.4c-2-3.1-4.1-6.1-5.3-8.8-.7-1.6-1.1-3.1-1.1-4.5 0-.8.1-1.6.4-2.3l-.7-.2-.2.7c11.8 2.9 23.3 3.4 34.6 3.4 2.7 0 5.4 0 8.1-.1l7.5-.1-5.9-4.3c-6.6-4.8-13.8-8.2-20.3-11.3-6.5-3.1-12.4-5.9-16.5-9.2-2.3-1.8-4.1-3.8-5.4-6-1.2-2.2-1.9-4.8-1.9-8v-1.5h-.7l.2.6c14.8-5.4 29-14 42.7-14.9l-.1-.7-.6.4c3.8 5 9 10.8 15.2 15.7 3.7 2.9 7.7 5.4 12 7.2l1.8.7 11.7-11.7-1.9-1.7c-.8-.7-1.6-1.3-2.4-1.9-7.3-5.7-15.4-9.8-22.8-13.5-7.5-3.7-14.3-6.9-19.2-10.8-2.6-2.1-4.7-4.2-6.1-6.7-1.4-2.5-2.2-5.3-2.2-8.8v-.9h-.7l.2.6c16.7-5.5 32.6-15.8 48.2-18.2l-.1-.7-.6.4c3 4.7 7.1 8.7 11.6 12.3 8.4 6.6 18.5 11.9 27.1 17.7l1.7 1.2 1.6-1.3c1.2-1 2.3-1.9 3.3-2.9 4.9-4.8 6.6-9.5 8.9-13.7l.3-.6.1-.2-.3-.9c-2.8-8.7-11.1-17.3-20.9-25-11-8.6-24-16-33.8-20.2l-.2-.1h-.1l-.3-.1c-.9-.2-1.8-.2-2.7-.2-5.1 0-9.4 2.5-13.3 4.6-3 1.7-5.9 3.2-8.4 3.9l.2.7.6.4c3.6-4.6 5.5-9.1 7-13.4 1.5-4.3 2.7-8.4 4.7-12.4l-.4-.3-.3.6c12.1 5.5 31.1 15.9 46.6 28.1 10.7 8.4 19.8 17.7 24.1 26.5 1.8 3.7 2.8 7.3 2.8 10.7 0 4.7-1.8 9.2-6.2 13.6-.9.9-2 1.9-3.2 2.8l.4.4zm-78.7-53.8l.4-.5-1.5-1.2-.9 1.1 1.5 1.2.9-1.1-.4.5.4-.5-1.5-1.2-.9 1.1 1.5 1.2.9-1.1-.4.5zm32.2 145.7l.4-.5c-10.6-8.3-22.4-12.4-33.7-12.4-6.2 0-12.4 1.2-18.1 3.6l-1.6.7 1.7.6c4.6 1.6 8.2 4 11.4 6.5 2.3 1.8 4.5 3.7 6.7 5.4 2.3 1.8 4.6 3.4 7.3 4.6 5.5 2.4 11.6 3 17.9 3 2.7 0 5.5-.1 8.3-.2 2.5-.1 5-.2 7.5-.2h4.4l-1-1.2c-3.4-4.1-7.1-7.6-10.9-10.6l-.3.7-.4.5c3.7 2.9 7.3 6.4 10.6 10.4l.5-.4v-.7h-3c-2.6 0-5.1.1-7.6.2-2.8.1-5.5.2-8.2.2-6.2 0-12.1-.6-17.3-2.9-2.5-1.1-4.8-2.6-7-4.4-2.1-1.7-4.3-3.6-6.7-5.4-3.3-2.6-7-5.1-11.8-6.7l-.2.6.3.6c5.6-2.3 11.5-3.5 17.5-3.5 11 0 22.4 3.9 32.8 12.1l.5-.6zm74.1-66.9l-.7-.3c-4.3 10.3-7.2 20.7-16.3 31.5l-.9 1-1.1-.9c-.2-.2-.4-.3-.7-.5-12.5-9.8-24.8-15.3-37.5-23.7l-1.1-.7 9.4-9.4.7-.7.9.5c10.2 5.1 20.4 10.2 30.8 16.8l1.1.7v-1.3c0-1.3-.4-2.5-1.1-3.6-.7-1.1-1.7-2.1-2.9-3.1-2.9-2.3-7.2-4.3-11.5-6.2-4.3-2-8.7-4-12-6.5-.2-.1-.4-.3-.6-.5l-.8-.7 13.4-13.4 1 .8c.4.4.9.7 1.3 1 9.1 7.1 18 10.9 27.3 17.6l.7.5-.3.7.9.4.6.3.5-1.2.2-.5-1.6-1.1c-9.5-6.8-18.4-10.6-27.3-17.6-.4-.3-.9-.7-1.3-1l-2-1.6-15.4 15.3 1.9 1.7.5-.5-.5.5c.2.2.5.4.7.5 3.4 2.6 7.9 4.7 12.2 6.7 4.3 2 8.5 3.9 11.2 6.1l.4-.5-.5.5c1.2.9 2 1.8 2.6 2.7.6.9.9 1.8.9 2.9h.7l.4-.6c-10.4-6.6-20.7-11.8-30.9-16.9l-1.9-.9-1.4 1.4-10.6 10.6 2.4 1.6c12.8 8.4 25 13.9 37.4 23.6.2.2.4.3.7.5l.4-.5-.4.5 2.2 1.7 1.8-2.1c9.4-11 12.3-21.7 16.6-31.8l-.5-.3zm-4.2-.1l.4-.6c-8.6-6-17.2-9.8-26.1-16.7l-.5-.4-10.1 10.1.7.5c3 2.1 7 3.9 11.1 5.7 4.1 1.9 8.2 3.9 11.3 6.3 2.9 2.2 4.8 5.1 4.8 8.4 0 1-.2 2.1-.6 3.3l-.5 1.6-1.5-1c-10.6-7-21.1-12.4-31.7-17.7l-.5-.2-7 7 .7.5c11.5 7.4 23.1 12.8 34.9 21.9l.6.4.4-.5c7.5-9.5 10.3-18.7 14.2-28.2l.2-.5-.4-.3-.4.4-.7-.3c-3.9 9.6-6.7 18.6-14 27.8l.6.4.4-.5c-12-9.2-23.6-14.6-35-22l-.4.6.5.5 6-6-.5-.5-.3.6c10.6 5.3 21 10.6 31.6 17.6l3.1 2 1.1-3.3-.7-.2.7.2c.5-1.3.7-2.5.7-3.7 0-3.9-2.3-7.2-5.4-9.5l-.4.5.4-.5c-3.3-2.5-7.5-4.5-11.6-6.4-4.1-1.9-8.1-3.7-10.9-5.6l-.4.6.5.5 9.1-9.1-.5-.5-.4.5c9.1 7.1 17.8 10.9 26.2 16.8l.3-.5-.7-.3.7.3zm-48.2-12l.2-.7-1.2-.3c-6.7-1.5-13.1-6.3-19.5-10.8-5.7-4-11.3-7.8-16.3-9l-.8-.2-.1.7c-.1.6-.1 1.2-.1 1.7 0 1.6.4 3 1.1 4.2.7 1.2 1.7 2.3 3 3.3 3.3 2.7 8.4 4.5 13.8 6.5 5.3 2 10.8 4.1 14.9 7l.4-.5-.4.5 1 .7-10.1 10.1-1-.5c-14.7-8.3-29.3-16.4-44-25l-.9-.5.5-.8c1-1.7 2.2-3.2 3.5-4.6 4-3.9 9.3-6.6 14.7-9.2 5.3-2.6 10.7-5 14.9-8.5l1.1-1 .9 1.2c1.4 1.9 3.1 3.6 5.1 5.1 8.3 6.6 20.8 9.9 30.5 17l1 .7-12.3 12.3.1.6.2-.7-.2.7.5.5 13.4-13.4-2.2-1.6c-10-7.3-22.5-10.7-30.5-17-1.8-1.4-3.5-3-4.8-4.8L233 80l-2.3 1.9c-4 3.4-9.2 5.8-14.6 8.3-5.4 2.6-10.8 5.3-15 9.5-1.4 1.4-2.7 3-3.7 4.8l-1.1 2 2.1 1.2c14.7 8.6 29.4 16.7 44 25l1.9 1.1 12-12-2.2-1.7c-4.3-3.1-9.9-5.2-15.2-7.2-5.3-2-10.3-3.8-13.4-6.3-1.2-1-2.1-1.9-2.7-2.9-.6-1-.9-2.1-.9-3.5 0-.5 0-1 .1-1.5l-.7-.1-.2.7c4.7 1.1 10.2 4.8 15.8 8.8 6.4 4.5 12.9 9.4 20 11.1l1.2.3.4.1.3-.3-.4-.7zm7.1-12.5l.4-.6c-9-6-20.5-9.3-28.9-15.9-1.5-1.2-2.9-2.5-4.2-3.9l-.4-.5-.5.4c-4.5 3.3-9.7 5.7-14.7 8.1-5 2.4-9.6 4.8-13 8.2-.8.8-1.6 1.7-2.3 2.7l-.4.6.6.4c13.7 8 27.3 15.5 41 23.2l.5.3 7-7-.7-.4c-3.8-2.3-8.7-4-13.7-5.9-4.9-1.8-9.8-3.8-13.3-6.5-3-2.3-4.9-5.4-4.9-9.2 0-1.2.2-2.5.6-3.8l.3-1 1.2.1c6.7.8 13.2 5.3 19.6 9.9 6 4.2 11.9 8.5 17.3 10.1l.4.1 9.3-9.3-.7-.5-.5.4-.5-.5-8.5 8.5.5.5.2-.7c-5-1.5-10.9-5.6-16.9-9.9-6.5-4.5-13-9.2-20.3-10.1l-2.4-.3-.6 2.1.7.2-.7-.2c-.4 1.5-.6 2.9-.6 4.2 0 4.3 2.2 7.9 5.5 10.3 3.8 2.9 8.7 4.9 13.7 6.7 4.9 1.9 9.8 3.6 13.4 5.8l.4-.6-.5-.5-6 6 .5.5.4-.6c-13.7-7.7-27.3-15.2-41-23.2l-.4.6.6.4c.6-.9 1.3-1.7 2.1-2.5 3.1-3.2 7.7-5.6 12.6-8 4.9-2.4 10.3-4.8 14.9-8.2l-.4-.5-.5.4c1.3 1.5 2.8 2.9 4.4 4.1 8.8 6.8 20.3 10.1 29 16l.4-.5-.5-.5.5.5zm-8.6 60.9l-.5.5 1 .9-1.2.8c-.6.4-1.1.8-1.5 1.1-.4.4-.7.9-1 1.3-.2.4-.4.9-.6 1.4-.4 1-.8 2.3-2 3.5-.3.3-.7.7-1.2 1l-.8.6-.8-.6c-7-5-14.1-7.4-21.5-13l-.9-.7 8.3-8.3.7-.7 1 .5c6 3.2 12.2 5.7 18.7 10.7l1.8 1.5.5-.5.5-.5c-.6-.5-1.3-1-1.9-1.5-6.6-5.2-12.9-7.7-18.9-10.9l-1.9-1-1.5 1.5-9.4 9.4 2.2 1.6c7.6 5.8 14.7 8.2 21.5 13.1l1.7 1.2 1.7-1.2c.5-.4 1-.7 1.3-1.1 1.5-1.5 2-3 2.4-4 .2-.5.3-.9.5-1.3.2-.3.4-.6.7-1l-.5-.5.5.5c.3-.3.7-.6 1.2-1l2.7-1.7-2.4-2.1-.4.5zm-4.5 1.2l.4-.5c-5.6-4.4-11.1-6.8-16.8-9.7l-.5-.2-6 6 .7.5c6.1 4.3 12.1 6.7 18.4 10.9l.5.4.4-.5c.6-.7.9-1.5 1.2-2.3.4-1 .8-2.3 2-3.5l.2-.2.5-.5-.7-.6-.3.2-.4.5.1.1.4-.5-.5-.5-.2.2c-1.5 1.5-2 3-2.4 4-.3.9-.5 1.4-.9 1.9l.5.4.4-.6c-6.5-4.3-12.5-6.7-18.4-10.8l-.4.6.5.5 5-5-.5-.5-.3.6c5.8 2.9 11.1 5.3 16.6 9.6l.5-.5zm-37.3-8.6l.4-.6-1.4-.8c-6.6-3.8-13.2-8.7-19.2-10.5l-.6-.2-.2.6c-.4 1-.6 1.8-.6 2.6 0 .9.3 1.7.7 2.4.5.7 1.1 1.3 1.8 1.9 1.6 1.3 4 2.4 6.5 3.4s5.2 2.1 7.6 3.2l1.2.6-.8 1c-1.3 1.5-2 2.8-2 4 0 .4.1.8.3 1.2l.6-.3-.6.3.8 1.8-2.3-.4c-8.5-1.3-20.3-7-28.8-13.6-2.6-2-4.8-4.1-6.6-6.2l-.5.4.4.6 1.6-1-.8-1.1-1.1.7-.2-.2.6-.6.1-.1c4.1-4.1 8.3-6.1 12.3-8 4.1-1.9 7.9-3.7 11.7-7.3l1-.9 1 1c.6.6 1.2 1.1 1.9 1.7 2.8 2.2 6.5 4.3 10.6 6.5s8.4 4.7 12.4 7.6l1 .7-9.5 9.4.7.2.4-.6-.4.6.5.5 10.6-10.5-2.3-1.6c-4.1-3-8.5-5.4-12.6-7.7-4.1-2.2-7.8-4.3-10.4-6.4-.7-.5-1.3-1.1-1.8-1.6l-2-2-2 1.9c-3.6 3.4-7.2 5.1-11.3 7-4 1.9-8.5 4.1-12.7 8.3l-.1.1-1.5 1.5 1.7 2.1 2.2-1.4-.8-1.1-2.3 1.5.5.6c1.8 2.2 4.2 4.4 6.8 6.4 8.7 6.8 20.5 12.5 29.4 13.9l4.9.8-1.9-4.1c-.1-.2-.1-.4-.1-.6 0-.6.4-1.7 1.7-3.1l2-2.3-2.8-1.4c-2.5-1.2-5.2-2.2-7.7-3.3-2.5-1-4.7-2.1-6.2-3.2l-.4.5.5-.5c-.7-.6-1.2-1.1-1.5-1.6-.3-.5-.5-1-.5-1.7 0-.6.1-1.2.5-2.1l-.7-.2-.2.7c5.6 1.6 12.2 6.4 18.9 10.3l1.9 1.1.4-.4-.7-.4zm4.3-9.5l.4-.6c-7.3-5-15.8-8.6-21.5-13-.2-.2-.5-.4-.7-.6l-.5-.4-.5.4c-3.6 3-7.3 4.8-10.9 6.5-3.7 1.7-7.2 3.5-10.6 6.6l-.5.5.5.5c1.5 1.6 3.2 3.1 5.2 4.7 7.2 5.7 17.2 10.7 24.7 12.5l.8.2.1-.8c.1-1 .6-2 1.2-2.9l.4-.7-.7-.3c-4.1-1.8-9.2-3.4-12.6-6-2-1.5-3.3-3.6-3.3-6.1 0-1.4.4-3 1.4-4.6l.4-.8 1 .2.1-.7-.1.7c7 1.3 13.7 6.4 20.3 10.3l.5.3 5.9-5.9-.7-.5-.3.5-.5-.5-4.9 4.9.5.5.4-.6c-6.5-3.8-13.3-9-20.8-10.5l-1.5-.3-.5-.1-.9 1.7.6.3-.6-.3c-1.1 1.8-1.6 3.6-1.6 5.3 0 3 1.6 5.6 3.9 7.2l.4-.5-.4.5c3.7 2.8 8.9 4.5 12.9 6.2l.3-.6-.6-.4c-.7 1.1-1.2 2.2-1.4 3.5l.7.1.2-.7c-7.2-1.8-17.2-6.7-24.2-12.3-1.9-1.5-3.6-3-5-4.5l-.5.5.5.5c3.3-3 6.6-4.6 10.3-6.3 3.5-1.7 7.4-3.5 11.2-6.7l-.5-.5-.5.5c.2.2.5.4.7.6 5.9 4.5 14.4 8.2 21.5 13l.3-.5-.5-.5.5.5zm30.4 35.1l-.4-.6c-.4.3-.8.6-1.1.9-.5.6-.9 1.1-1.1 1.7s-.3 1.1-.4 1.8c-.2 1.3-.4 3-2.1 4.6-.1.1-.2.2-.4.3l-1.1.9-.9-1.1c-.8-1-1.8-2-2.9-2.9-2.6-2-5.8-3.7-8.9-5.2-3.1-1.6-6.2-3.1-8.4-4.8-.9-.7-1.6-1.4-2.2-2.3-.6-.8-.9-1.7-.9-2.8v-.2c0-2 1.1-4 3.4-6.3l.1-.1.7-.8 1 .4c8.3 3.6 16.7 8.3 25.2 14l1.3.8-1.2.9.3.8.4.6 2.8-2-2.9-1.9c-8.5-5.7-17-10.4-25.4-14.1l-1.9-.8-1.3 1.5-.1.1.5.5-.5-.5c-2.4 2.4-3.8 4.8-3.8 7.3v.2c.1 1.3.5 2.4 1.2 3.4s1.5 1.9 2.5 2.6c2.4 1.8 5.5 3.4 8.6 4.9 3.1 1.6 6.2 3.1 8.6 5.1 1.1.8 2 1.7 2.7 2.6l1.8 2.2 2.3-1.9c.2-.2.4-.3.5-.4l-.5-.5.5.5c2-1.9 2.3-4.1 2.5-5.4l-.7-.1.7.1c.1-.7.2-1.2.3-1.5.1-.4.3-.7.8-1.2l-.5-.5.5.5c.2-.2.5-.5.9-.7l-.5-.6zm-6.2 3.5l.7.1c.2-1.2.4-2.8 1.8-4.3l.5-.6-.7-.4c-7.2-4.7-14.4-8.7-21.5-11.9l-.5-.2-.3.4c-1.4 1.6-1.9 2.9-1.9 4v.1h.7-.7c0 .6.2 1.2.6 1.8.4.6.9 1.1 1.7 1.7l.4-.5-.5.5c1.9 1.5 4.8 2.9 7.9 4.5 3.1 1.6 6.5 3.3 9.3 5.5.5.4 1.1.9 1.5 1.3l.8.8.3-1.1c.2-.5.2-1 .3-1.6l-.4-.1-.7-.1c-.1.6-.2 1.1-.3 1.4l.7.2.5-.5c-.5-.5-1.1-1-1.6-1.4-3-2.3-6.4-4.1-9.6-5.7-3.2-1.6-6-2.9-7.7-4.3-.7-.5-1.1-1-1.4-1.4-.3-.4-.4-.7-.4-1.1v-.1c0-.6.3-1.6 1.6-3.1l-.5-.4-.3.6c7 3.2 14.1 7.1 21.3 11.8l.4-.6-.5-.4c-1.6 1.8-1.9 3.8-2.1 5l.6.1-.7-.1.7.1z"/><path clip-path="url(#b)" fill="#AA182C" d="M198.3 176.4l-.5-.4c-5.8 7-13.6 11.5-23.4 11.5-2 0-4.1-.2-6.2-.6-.8-.1-1.6-.3-2.4-.5l-.8-.2-.1.8c-.6 5.2-1.8 10.6-2.2 15.6-.1 1.2-.2 2.4-.2 3.5 0 4.2.8 7.8 3.1 10.2l.5-.5-.5.5.5.6-.4.6c-3.2 4.7-7.5 7.9-12.5 10.1-5 2.2-10.7 3.4-16.5 4.2-11.7 1.6-24.5 1.5-35.2 4l-2.4.6.9-2c2.2-5.1 3.8-10.2 5-15.3 3.2-14 3.3-28 5.1-42.2l.1-.6-11.7-2.3-.1.7c-.1 1.1-.2 2.2-.2 3.3 0 7.5 2.4 15.7 3.2 18.2l.7-.2-.7.2.2.5-.3.4c-2.8 3.4-6.5 5.6-10.7 7-4.2 1.4-8.9 2-13.7 2.4-9.6.7-20 .3-28.3 2.1l-.8.2-.9.2.4.8c2 3.9 3.5 8 3.8 12.6l.2 3.5-2.5-2.7c-8.6-9.2-16.3-20.1-25.1-29.8S5.1 175.3-7.7 171l-1-.4.3-.9c1.2-4.3 3.4-7.4 6.2-9.5 2.7-2.1 6-3.1 9.3-3.1 1 0 2 .1 3 .3 4.2.8 8.1 3 10.9 6.5l1.1 1.4.2-1.7c.1-1.6.2-3.2.2-4.8 0-9-2.3-16.6-4.4-24.5l-.1-.4.2-.4c2.1-3.2 4.1-6.6 6.8-9.5 2.6-2.8 6-5.1 10.7-5.5l1.2-.1.3.9c3 11.3 8.8 21.1 15.1 30.6l1.1 1.7.2-2c.2-2.6.3-5.3.3-7.8 0-5.2-.3-10.2-.3-15 0-3.8.2-7.3 1-10.6.7-3.4 2.2-6.5 4.5-9.3 2.4-2.8 5.7-5.1 10.3-7l.8-.3.6.5c6.3 4.5 13.7 8.4 20.6 12.6 7 4.3 13.4 8.9 17.8 14.9l.4.5-.3.5c-3 5.3-6.3 12.4-7.9 19.5-.7 3-1.1 6-1.1 9v2l10.4 1.9.2-.6c.1-.3.2-.6.2-1 1.4-6.1 1.7-12.1 1.7-18 0-4.6-.2-9.1-.2-13.3 0-4.6.2-9 1.1-13 1.6-7.3 5.9-13.6 15.3-17.5l.8-.3.7.5c6.8 5.2 15.1 9.5 23.1 14.2 8 4.6 15.7 9.6 21.3 15.8l.5.6-.5.6c-3.2 4.4-5.2 9.5-6.4 15-2 8.8-2.2 18.6-3.5 27.9l-.1.6.6.2c.8.2 1.6.4 2.4.5 2.3.4 4.4.6 6.5.6 3.2 0 6.2-.4 9.5-.6h.3l.2-.2c5.8-5.6 10-15.6 12.4-26.3 2.1-9.3 3.1-19.2 3.1-27.5 0-2.6-.1-5.1-.3-7.3v-.2c-.7-1.8-2.1-3.2-3.9-4.4-1.8-1.2-4-2.3-6.4-3.5l-.3.6.3-.6c-2.4-1.1-4.8-2.3-7-3.7-2.2-1.4-4-3.1-5-5.3l-.6.3.6-.3-.9-1.8 2.3.4c2.7.4 5.1.6 7.5.6 5.2 0 9.9-.9 14.5-1.9 4.6-1 9.3-2 14.8-2.3l1.3-.1.1 1.1c.2 3 .4 6.7.4 10.7 0 11.9-1.2 27.3-4.5 41.8-2.9 12.7-7.5 24.7-14.5 33.1l.5.4c7.3-8.7 11.9-20.9 14.8-33.7 3.4-14.6 4.5-30.1 4.5-42.1 0-4-.1-7.7-.4-10.7l-.2-2.4-2.5.1c-5.6.3-10.4 1.3-15 2.3-4.6 1-9.1 1.9-14.2 1.9-2.3 0-4.7-.2-7.2-.6l-4.9-.8 1.9 4.2c1.2 2.6 3.2 4.4 5.5 5.9s4.8 2.6 7.2 3.8c2.3 1.1 4.5 2.2 6.2 3.3 1.7 1.2 2.9 2.4 3.4 3.8l.7-.2-.7.1c.2 2.2.3 4.6.3 7.2 0 8.2-.9 18-3.1 27.2-2.4 10.6-6.5 20.4-12 25.7l.5.5-.1-.7c-3.3.2-6.2.6-9.4.6-2 0-4-.1-6.2-.5-.8-.1-1.5-.3-2.3-.5l-.2.7.7.1c1.3-9.4 1.5-19.1 3.5-27.8 1.2-5.3 3.1-10.2 6.2-14.5l1.1-1.5-1.3-1.4c-5.8-6.4-13.6-11.4-21.7-16.1-8-4.7-16.3-9-22.9-14.1l-1-.8-.3-.2-1.6.7c-9.8 4.1-14.5 10.9-16.1 18.5-.9 4.2-1.2 8.7-1.2 13.3 0 4.3.2 8.8.2 13.3 0 5.8-.3 11.8-1.7 17.7-.1.3-.1.6-.2.9l.7.2.1-.7-9.2-1.7-.1.7h.7v-1.4c0-2.8.4-5.7 1.1-8.7 1.6-6.9 4.8-13.9 7.8-19.2l.5-.9.2-.4-.9-1.2c-4.6-6.2-11.2-11-18.2-15.3-7-4.3-14.4-8.2-20.6-12.6l-1-.7-.3-.2-1.5.6c-4.8 1.9-8.3 4.4-10.8 7.4-2.5 2.9-4 6.3-4.8 9.8-.8 3.5-1 7.1-1 10.9 0 4.8.3 9.8.3 15 0 2.5-.1 5.1-.3 7.7l.7.1.6-.4c-6.3-9.5-11.9-19.1-14.9-30.2l-.6-2.1-2.3.2c-5.1.4-8.9 3-11.7 6-2.8 3-4.8 6.6-6.9 9.7l-.4.6-.2.2.3 1c2.1 8 4.4 15.5 4.4 24.2 0 1.5-.1 3.1-.2 4.7l.7.1.6-.4c-3-3.7-7.2-6.2-11.7-7l-.1.7.1-.7c-1.1-.2-2.2-.3-3.3-.3-3.6 0-7.2 1.1-10.2 3.4-3 2.3-5.4 5.7-6.7 10.2l.7.2-.7-.2-.6 2.2 2.3.8c12.5 4.2 22.1 12.5 30.9 22 8.7 9.6 16.4 20.5 25.1 29.8l5.2 5.6-.4-7.3c-.3-4.8-1.8-9.1-3.9-13.1l-.6.3.2.7.8-.2c8-1.8 18.3-1.4 28.1-2.1 4.9-.4 9.7-1 14.1-2.4 4.4-1.5 8.3-3.8 11.4-7.4l.6-.7.2-.3-.4-1.2c-.8-2.3-3.1-10.5-3.1-17.8 0-1.1.1-2.2.2-3.2l-.7-.1-.1.7 10.3 1.9.1-.7-.7-.1c-1.8 14.3-1.9 28.3-5.1 42.1-1.2 5-2.7 10-4.9 15l-1.9 4.5 5.1-1.2c10.4-2.4 23.2-2.4 35.1-3.9 5.9-.8 11.7-2 16.9-4.3 5.2-2.3 9.7-5.6 13.1-10.6l.7-1.1.3-.4-1.3-1.4c-2-2.1-2.8-5.3-2.8-9.3 0-1.1.1-2.2.2-3.4.4-4.8 1.6-10.3 2.2-15.5l-.7-.1-.2.7c.8.2 1.7.4 2.5.5 2.2.4 4.4.6 6.5.6 10.2 0 18.5-4.8 24.5-12l-.9-.5zm-33.8 6.6l-.2.7c1.5.5 3 .8 4.5 1.1 2 .4 3.9.5 5.8.5 8.8 0 15.6-4 21.2-10.5 6.7-8 11.2-19.7 14.1-32.2 3.3-14.3 4.4-29.7 4.5-41.5 0-3.2-.1-6.1-.2-8.7v-.7l-.7.1c-9.2.8-17 4-27.3 4-1.1 0-2.3 0-3.5-.1l-2.1-.2 1.6 1.4c2.1 1.8 5.1 3.2 8.3 4.7l.3-.6-.3.6c2.4 1.1 4.8 2.3 6.9 3.8 2.1 1.5 3.8 3.2 4.7 5.6l.7-.2-.7.2v.2l.7-.1-.7.1c.2 2.4.3 5 .3 7.7 0 8.4-1 18.4-3.1 27.9-2.6 11.3-6.9 21.7-13.6 27.9l-.3.3h-.5c-3.4.2-6.7.7-10.4.7-2.2 0-4.5-.2-7-.6-1.4-.2-2.8-.6-4.3-1l-1-.3.1-.9c1.4-9.6 1.5-19.9 3.7-29.5 1.2-5.2 3-10.1 6-14.6l.3-.4-.4-.4c-10.5-11-28.6-18-42.1-27.9l-.3-.3-.4.2c-3.9 1.8-6.7 4.1-8.8 6.7-2 2.6-3.2 5.5-4 8.8-.9 3.7-1.1 7.8-1.1 12.2 0 4.2.2 8.7.2 13.4 0 6-.3 12.4-1.8 18.8-.2.9-.4 1.8-.7 2.7l-.3 1-14.8-2.7-.1-.8c-.1-1-.1-2-.1-3 0-3.1.4-6.3 1.2-9.4 1.6-7 4.6-13.8 7.6-19.1l.2-.4-.3-.4c-4.1-5.2-10-9.4-16.5-13.4s-13.5-7.8-19.8-12l-.3-.2-.4.2c-3.8 1.7-6.5 3.7-8.5 6.1-1.9 2.4-3.1 5.1-3.8 8.1-.7 3-.9 6.3-.9 9.9 0 4.6.3 9.7.3 15 0 4.4-.2 9-1.1 13.6l-.6 3.1-1.9-2.7c-7.2-10.5-14.2-21.3-17.9-34l-.2-.6-.6.1c-2.9.7-5.1 2.3-7.2 4.4-2.3 2.4-4.1 5.6-6.2 8.6l-.2.3.1.3c2 7.6 4.3 15.3 4.3 24.4 0 3.4-.3 7.1-1.1 10.9l.7.1v-.7l-3.9.2v.7l.7-.2c-2-5.8-6.8-9.4-11.8-10.3-.8-.1-1.6-.2-2.5-.2-2.5 0-4.9.7-7.1 2.2-2.2 1.5-4 3.9-5.3 7.3l-.2.6.6.2c23.2 8.7 36.5 29.7 51 46.7l1.2-.6c-1.9-5.4-5.3-10.2-8.8-15.2-5-6.9-10.1-13.9-10.8-22.5 0-.5-.1-1-.1-1.5 0-2.4.4-4.7.9-6.9.6-2.6 1.4-5.2 2-7.8.5-2.4 1-4.8 1-7.3s-.4-5-1.4-7.7l-1-2.7 2.9 1.4c15.2 7.2 24.1 20.9 24.2 37.4 0 3.6-.4 7.4-1.3 11.3-.8 3.6-2 7.2-3.7 11l-.5 1.1 1.2-.2c8-1.2 16.9-.9 25-1.5 4.5-.3 8.8-.9 12.5-2.1 3.7-1.2 6.9-2.9 9.4-5.6l.3-.3-.1-.4c-1-3.2-3-10.6-3-17.8 0-1.9.2-3.9.5-5.7l.2-1.1 16.7 3-.1 1c-2 14.6-1.9 29.2-5.3 44-1 4.2-2.2 8.4-3.8 12.5l-.4 1.1 1.2-.2c10.3-1.8 21.6-1.9 31.8-3.3 5.5-.8 10.6-1.9 15.1-3.7 4.5-1.9 8.3-4.6 11.3-8.4l.3-.4-.3-.4c-2.2-2.9-2.9-6.6-2.9-10.5 0-1.2.1-2.5.2-3.7.5-5.8 1.9-12.1 2.4-17.8l.1-1.4 1.6.5V183l.2-.6-3.3-1-.3 3.1c-.5 5.5-1.9 11.8-2.4 17.8-.1 1.3-.2 2.6-.2 3.8 0 4.1.7 8 3.1 11.3l.6-.4-.6-.4c-2.8 3.7-6.4 6.2-10.7 8-4.3 1.8-9.3 2.9-14.8 3.6-10.1 1.4-21.5 1.5-31.9 3.3l.1.7.7.2c1.6-4.3 2.9-8.5 3.9-12.7 3.4-15 3.4-29.7 5.4-44.1l.3-2.3-19.4-3.5-.5 2.4c-.4 1.9-.5 3.9-.5 5.9 0 7.4 2.1 14.9 3.1 18.1l.7-.2-.5-.5c-2.3 2.5-5.2 4.1-8.8 5.3-3.6 1.1-7.7 1.7-12.2 2-8 .6-16.9.3-25.1 1.5l.1.7.6.3c1.7-3.8 2.9-7.5 3.7-11.2.9-4 1.4-7.9 1.4-11.6 0-17-9.3-31.2-24.9-38.6l-6-2.8 2.2 5.8c.9 2.6 1.3 5 1.3 7.3 0 2.4-.4 4.7-.9 7.1-.6 2.6-1.4 5.2-2 7.8-.5 2.3-.9 4.7-.9 7.2 0 .5 0 1.1.1 1.6.7 9 6.1 16.2 11 23.2 3.5 4.9 6.9 9.7 8.6 14.8l.7-.2.5-.4c-14.4-16.9-27.8-38.2-51.5-47.1l-.3.6.7.2c1.2-3.2 2.9-5.3 4.8-6.6 1.9-1.3 4.1-1.9 6.3-1.9.7 0 1.5.1 2.2.2l.1-.7-.2.7c4.5.8 9 4.1 10.8 9.4l.2.5 5-.3.1-.5c.8-4 1.1-7.7 1.1-11.2 0-9.2-2.3-17.1-4.3-24.7l-.7.2.6.4c2-3.1 3.9-6.2 6-8.5 1.9-2.1 3.9-3.4 6.4-4l-.2-.7-.7.2c3.8 13 10.9 23.9 18.1 34.4l3.8 5.6 1.2-6.5c.8-4.8 1.1-9.4 1.1-13.9 0-5.4-.3-10.4-.3-15 0-3.5.2-6.7.9-9.6.7-2.9 1.8-5.4 3.5-7.5 1.8-2.2 4.3-4.1 8-5.7l-.3-.6-.4.6c6.3 4.3 13.4 8.1 19.8 12.1s12.3 8.1 16.1 13.1l.6-.4-.6-.3c-3 5.4-6.1 12.3-7.7 19.5-.7 3.2-1.2 6.5-1.2 9.7 0 1.1 0 2.1.2 3.2l.1 1.3.1.5 17.2 3.1.6-2.3c.3-.9.5-1.9.7-2.8 1.5-6.6 1.8-13 1.8-19.1 0-4.7-.2-9.2-.2-13.4 0-4.4.2-8.4 1-11.9.8-3.2 1.9-5.9 3.8-8.3 1.9-2.4 4.5-4.5 8.2-6.3l-.3-.6-.4.5c13.8 10.1 31.8 17.1 41.9 27.8l.5-.5-.6-.4c-3.1 4.7-5 9.8-6.2 15.1-2.2 9.8-2.3 20.2-3.7 29.6l-.2 1.4-.1.6 2.1.6c1.6.5 3 .8 4.5 1.1 2.6.5 5 .6 7.3.6 3.8 0 7.2-.5 10.5-.7h1l.7-.7c7.1-6.5 11.3-17.2 14-28.6 2.2-9.6 3.2-19.7 3.2-28.2 0-2.8-.1-5.5-.3-7.9V110.4l-.1-.3c-1-2.7-2.9-4.7-5.2-6.2-2.2-1.6-4.8-2.7-7.1-3.9-3.1-1.5-6.1-2.9-8-4.5l-.5.5-.1.7c1.2.1 2.4.1 3.6.1 10.7 0 18.6-3.3 27.4-4l-.1-.7h-.7c.1 2.5.2 5.4.2 8.6 0 11.7-1.1 27-4.4 41.2-2.8 12.4-7.4 24-13.8 31.7-5.4 6.4-11.7 10-20.1 10.1-1.7 0-3.6-.2-5.5-.5-1.4-.2-2.8-.6-4.3-1l-.1.8zm13.2-87.3l.7.1.4-1.7-1.4-.3-.4 1.7 1.4.3-.7-.1.7.1.4-1.7-1.4-.3-.4 1.7 1.4.3-.7-.1zM51.2 193.3l.7.1c.9-3.8 1.3-7.4 1.3-11 0-14.2-6.9-26-18.7-33.2l-1.3-.8.3 1.5c.3 1.4.4 2.8.4 4.2 0 2.7-.4 5.3-1 7.7-.6 2.7-1.4 5.3-2 7.8-.5 2.2-.9 4.3-.9 6.5 0 .5 0 .9.1 1.4.6 7.9 5.4 14.5 10.4 21.5 1.8 2.6 3.7 5.2 5.4 7.9l.7 1.1.6-1.2c2.3-4.7 3.9-9.2 4.9-13.6l-.9.1-.7-.1c-1 4.3-2.6 8.8-4.8 13.3l.6.3.6-.3c-1.7-2.8-3.6-5.4-5.4-8-5-7-9.6-13.5-10.2-20.8v-1.3c0-2 .3-4.1.8-6.2.6-2.5 1.4-5.1 2-7.8.6-2.5 1-5.2 1-8 0-1.4-.1-2.9-.4-4.4l-.7.1-.4.6c11.4 7 18.1 18.2 18.1 32.1 0 3.4-.4 7-1.2 10.7l.7-.2zm102.7 23.3l-.1-.7c-9.8 1.5-19.2 3.7-30.4 3.7-2.8 0-5.6-.1-8.6-.5l-1.4-.1.3-1.1c.1-.2.1-.5.2-.8 3.3-14.5 2.6-26.7 4.4-40.6l.2-1.2 14.1 2.5 1 .2v.9c0 2.8.1 5.7.1 8.6 0 7.6-.2 15.3-1.1 23.4l-.1 1.3 1.2-.6c1.3-.7 2.2-1.5 2.9-2.6.7-1.1 1.2-2.3 1.5-3.8.4-1.8.6-3.8.6-5.9 0-3.8-.4-8-.4-12 0-2.3.1-4.5.6-6.5.1-.2.1-.5.2-.7l.3-1 19.9 3.6-.3 1.1c-.1.5-.3 1-.4 1.5-2.4 10.5-1.7 19.3-3.5 29.8l-.1.8-.9.1-.2.6.1.7 1.4-.2.5-.1.3-1.7c1.9-10.7 1.1-19.4 3.5-29.7.1-.5.2-1 .4-1.5l.6-2.5-22.6-4.1-.6 2.2.7.2-.7-.2c-.1.3-.2.6-.2.8-.5 2.1-.6 4.4-.6 6.8 0 4.1.4 8.3.4 12 0 2.1-.1 4-.5 5.6l.7.2-.7-.2c-.3 1.4-.8 2.5-1.4 3.4-.6.9-1.3 1.6-2.4 2.1l.3.6.7.1c.9-8.2 1.1-16 1.1-23.6 0-2.9 0-5.7-.1-8.6v-2l-2.2-.4-15.5-2.8-.3 2.6c-1.8 14-1.1 26.1-4.4 40.4-.1.3-.1.5-.2.8l.7.1-.7-.2-.6 2.6 3 .3c3.1.3 6 .5 8.8.5 11.4 0 20.9-2.3 30.6-3.7l-.1-.5zm-2.1-3.3l.7.1c1.6-9.6 1-18.1 3.3-28.4l.2-.7-14.8-2.7-.1.7c-.2 1.4-.3 2.9-.3 4.6 0 3.8.4 8 .4 12 0 2.3-.1 4.6-.6 6.7-.4 2.1-1.4 4.1-2.9 5.7-1.5 1.6-3.6 2.8-6.5 3.4l-1.8.4.2-1.6c1.2-9.1 1.5-17.6 1.5-26 0-2.4 0-4.8-.1-7.2v-.6l-10.2-1.8-.1.7c-1.5 12.5-1 24.1-3.9 37.7l-.2.8.8.1c2.1.2 4.1.2 6.1.2 10.3 0 19.1-2 28.5-3.4l.5-.1.1-.5-.8-.1-.1-.7c-9.5 1.5-18.2 3.4-28.3 3.4-1.9 0-3.9-.1-6-.2l-.1.7.7.1c3-13.8 2.5-25.4 4-37.8l-.7-.1-.1.7 8.9 1.6.1-.7h-.7c0 2.4.1 4.8.1 7.1 0 8.4-.3 16.8-1.5 25.8l-.5 3.5 3.8-.8-.1-.7.1.7c3.1-.6 5.5-2 7.3-3.8 1.7-1.8 2.8-4.1 3.2-6.4l-.7-.1.7.1c.5-2.2.6-4.6.6-7 0-4.1-.4-8.3-.4-12 0-1.6.1-3 .3-4.3l-.7-.1-.1.7 13.4 2.4.1-.7-.7-.1c-2.4 10.5-1.8 19.1-3.3 28.5l.7.2-.1-.7.1.7zm-12.3-42.9l.7-.2-.3-1c-.6-2-.9-4.2-.9-6.4 0-4.4.9-9.2 1.7-13.9.7-4.1 1.3-8.1 1.3-11.6 0-2-.2-3.8-.7-5.5l-.2-.7-.7.3c-2.2.8-3.7 1.8-4.8 3.1-1.1 1.3-1.8 2.8-2.2 4.5-.3 1.3-.5 2.8-.5 4.3 0 6 1.9 13.2 1.9 19.8 0 1.6-.1 3.1-.4 4.6l.7.1-.7-.1-.2 1.1-15.1-2.7v-.9c.8-15.4 1.3-30.6 2.4-46.2l.1-1 1.2-.1h1.3c1.7 0 3.3.2 4.9.4 5.9 1.1 11.2 3.8 16.4 6.6 5.2 2.8 10.3 5.7 15.8 7.1l1.4.4-.6 1.1c-1.2 2.1-1.9 4.2-2.4 6.4-.7 3-.9 6.2-.9 9.5 0 4.1.3 8.3.3 12.6 0 3.3-.2 6.6-.8 9.9l-.2 1.1-18.3-3.3-.2.7.7-.2-.7.2-.1.7 19.7 3.6.5-2.5c.6-3.4.8-6.8.8-10.1 0-4.3-.3-8.6-.3-12.6 0-3.2.2-6.3.9-9.2.5-2.1 1.2-4.1 2.3-6.1l1.5-2.6-3.1-.8c-5.3-1.4-10.3-4.2-15.5-7-5.2-2.8-10.6-5.6-16.8-6.8-1.7-.3-3.4-.5-5.2-.5h-1.4l-1.8.1h-.6l-.1 2.2c-1.1 15.6-1.6 30.9-2.4 46.2l-.1 1.5v.6l17.6 3.2.5-2.5c.3-1.6.4-3.2.4-4.9 0-6.8-1.9-14.1-1.9-19.8 0-1.4.1-2.8.4-4 .4-1.6 1-2.9 1.9-4 .9-1.1 2.2-2 4.2-2.7l-.2-.6-.7.2c.4 1.5.6 3.2.6 5.1 0 3.4-.6 7.3-1.3 11.4-.8 4.7-1.7 9.5-1.7 14.1 0 2.4.3 4.7.9 6.8l.3 1 .1.4.4.1.2-.5zm15.7-.8l.7.1c.3-2.4.5-4.9.5-7.3 0-4.2-.3-8.4-.3-12.6 0-3.4.2-6.9 1-10.2.4-1.7 1-3.5 1.7-5.2l.3-.7-.7-.2c-5.5-1.8-10.4-4.6-15.2-7.2-4.8-2.6-9.5-5-14.6-5.8l-.1.7.1-.7c-1.2-.2-2.5-.4-3.7-.4h-.7v.7c-1 14.5-1.5 28.7-2.2 43v.6l10.2 1.8.1-.7c.1-.7.1-1.5.1-2.3 0-6.1-1.9-13.3-1.9-19.7 0-1.7.1-3.4.5-4.9.5-2.2 1.5-4.3 3.2-6 1.7-1.7 4.2-3.1 7.4-3.9l1.2-.3.4.9c1.1 2.4 1.5 5.1 1.5 8 0 3.7-.7 7.8-1.4 11.9-.8 4.8-1.7 9.5-1.7 13.7 0 1.7.1 3.2.5 4.7l.1.4 13.7 2.5.1-.7-.8-.2.1-.7-12.5-2.3-.1.7.7-.2c-.3-1.3-.4-2.8-.4-4.4 0-4 .8-8.7 1.7-13.5.7-4.1 1.4-8.2 1.4-12.1 0-3-.4-5.9-1.6-8.6l-.9-2-2.3.6.2.7-.2-.7c-3.5.8-6.2 2.3-8.1 4.2-1.9 1.9-3.1 4.2-3.6 6.7-.4 1.7-.5 3.4-.5 5.2 0 6.6 1.9 13.8 1.9 19.7 0 .7 0 1.5-.1 2.1l.7.1.1-.7-8.9-1.6-.1.7h.7c.7-14.3 1.2-28.6 2.2-43h-.7v.7c1.2 0 2.3.2 3.5.4 4.7.8 9.3 3.1 14.1 5.7 4.8 2.6 9.8 5.5 15.5 7.3l.2-.6-.6-.3c-.8 1.8-1.4 3.6-1.8 5.4-.8 3.5-1 7-1 10.5 0 4.3.3 8.5.3 12.6 0 2.4-.1 4.8-.4 7.1l.5.3.1-.7-.1.7zm-63.9 23.9l-.7-.2-.4 1.3-1.5-.6c-.7-.3-1.3-.5-1.8-.5-.4-.1-.8-.1-1.2-.1-.7 0-1.4.1-2.2.3-.8.2-1.7.3-2.8.3-.5 0-1.1 0-1.7-.2-.5-.1-1-.2-1.6-.4l-.9-.3.1-.8c1.3-7.9.2-14.5 2-23l.2-1.1 12.4 2.2 1 .2v2.3c0 2 .1 4 .1 6.1 0 3.8-.2 7.7-1.2 12.1-.2.7-.3 1.4-.5 2.2l.7.2.7.2c.2-.7.4-1.5.6-2.2 1.1-4.6 1.2-8.6 1.2-12.4 0-2.1-.1-4.1-.1-6.1v-3.5l-2.2-.4-13.7-2.5-.5 2.4c-1.9 8.8-.7 15.5-2 23.1l-.2 1.4-.1.6 2.1.7c.6.2 1.2.4 1.8.5.7.1 1.3.2 1.9.2 1.3 0 2.3-.2 3.1-.4.8-.2 1.4-.3 1.9-.3.3 0 .6 0 .9.1.4.1.9.2 1.6.5l2.9 1.2.8-2.8-.7-.3zm-3.3-2.9l.7.1c1-4.3 1.2-8.1 1.2-11.8v-6.6l-8.7-1.6-.1.7c-1.2 6.8-.5 12.6-1.4 19.6l-.1.7.7.1h.6c.8 0 1.4-.1 2.2-.3.8-.2 1.7-.4 2.8-.4.5 0 1.1 0 1.7.2l.1-.7-.1.7.3.1.7.1.2-.8-.8-.1-.7-.2v.1l.7.2.1-.7-.3-.1c-.7-.1-1.3-.2-2-.2-1.3 0-2.3.2-3.1.4-.8.2-1.4.3-1.9.3h-.5l-.1.7.7.1c.9-7.1.3-12.9 1.4-19.5l-.7-.1-.1.7 7.4 1.3.1-.7h-.7c0 2.1.1 4 .1 6 0 3.7-.2 7.4-1.1 11.5l.7.2-.7-.2.7.2zm-10.3-32.8h.7l.1-1.5c.3-4.9 1.1-10.2 1.1-14.8 0-1.9-.1-3.6-.5-5.2l-.2-.6-.7.1c-1.8.3-3.1.9-4 1.7-.9.9-1.3 1.9-1.7 3.2-.2.9-.3 2-.3 3.1 0 3.4.8 7.5.9 11.1v1.3l-1.5-.2c-.7-.1-1.3-.1-1.8-.1-.9 0-1.7.1-2.4.3-.7.2-1.2.6-1.6 1l.5.4-.5-.4-1.5 1.7-.8-2c-1.7-4.1-2.5-9.6-2.5-15.5 0-4.5.5-9.1 1.5-13.3.7-2.9 1.6-5.7 2.8-8.1l-.6-.3-.3.6 1.8.7.5-1.3-1.1-.4.1-.2 1.1.2h.2c6 1.1 10.2 3.3 14.1 5.4 3.9 2.1 7.6 4.2 13 5.3l1.4.3-.4 1.1c-.3.7-.5 1.5-.7 2.3-.8 3.2-.9 7.2-1 11.4-.2 4.2-.3 8.8-1.2 13.3l-.2 1.1-14.1-2.5-.2.8h.7-.7l-.1.7 15.5 2.8.5-2.5c.9-4.6 1-9.2 1.2-13.5.2-4.2.3-8.1 1-11.1.2-.8.4-1.5.6-2.1l1-2.6-3-.6c-5.1-1-8.6-3-12.6-5.1-3.9-2.1-8.3-4.5-14.5-5.6h-.2l-2.1-.4-1.2 2.4 2.5 1 .5-1.3-2.4-1-.3.6c-1.3 2.5-2.2 5.4-2.9 8.4-1 4.4-1.5 9.1-1.5 13.6 0 6 .8 11.7 2.6 16l1.7 4.1 3-3.4c.2-.2.5-.4.9-.6.5-.2 1.1-.2 1.9-.2.5 0 1 0 1.7.1l3.1.3-.1-2.8c-.1-3.8-.9-7.8-.9-11 0-1 .1-2 .3-2.8l-.7-.2.7.2c.3-1.2.7-2 1.3-2.6.6-.6 1.5-1 3.2-1.4l-.1-.7-.7.2c.4 1.4.5 3.1.5 4.9 0 4.4-.8 9.7-1.1 14.7l-.1 1.5v.6l.6.1.2-.7zm11.4-1.5l.7.1c1.2-8.1.5-16.4 1.9-22.9.1-.3.1-.5.2-.8l.2-.7-.7-.2c-4.8-1.3-8.3-3.2-11.8-5.1-3.5-1.9-7-3.8-11.7-4.8l-.6-.1-.2.5c-.8 1.9-1.5 4-2 6.3-.9 4-1.4 8.5-1.4 12.8 0 4.6.5 9 1.5 12.5l.2.7.7-.3c1.1-.4 2.3-.6 3.5-.6h.8l-.1-.7c-.2-2.9-.8-6-.8-9 0-1.3.1-2.5.4-3.7.3-1.8 1.3-3.4 2.9-4.7 1.6-1.3 3.9-2.1 6.8-2.2l1-.1.3.8.7-.2-.7.2c.8 2.3 1.1 4.9 1.1 7.5 0 4.3-.7 8.8-1.1 13.2v.6l8.6 1.5.1-.7-.5.1.1-.7-7.3-1.3-.1.7h.7c.3-4.2 1.1-8.8 1.1-13.2 0-2.8-.3-5.5-1.2-8l-.5-1.3-.2-.5-2.1.1v.7-.7c-3.2.1-5.8 1.1-7.6 2.5-1.9 1.5-3 3.4-3.4 5.5l.7.1-.7-.1c-.3 1.3-.4 2.6-.4 4 0 3.1.6 6.3.8 9.1l.7-.1v-.7c-1.4 0-2.8.2-4 .7l.3.6.7-.2c-1-3.3-1.5-7.6-1.5-12.1 0-4.2.4-8.6 1.4-12.5.5-2.2 1.2-4.3 1.9-6.1l-.6-.3-.2.7c4.6 1 7.8 2.8 11.4 4.7 3.4 1.9 7.1 3.9 12.1 5.2l.2-.7-.7-.2c-.1.3-.1.6-.2.8-1.5 6.8-.8 15.1-2 23l.6.3.1-.7-.1.7zM70 197.2l.2-.6c-.5-.2-1-.3-1.4-.4-.4-.1-.8-.1-1.1-.1-1.1 0-1.9.3-2.9.7-1 .4-2.4.9-4 .9-.5 0-1 0-1.6-.1-.2 0-.3-.1-.5-.1l-1.4-.4.6-1.1c.6-1.1 1-2.4 1.3-3.7.6-2.4.7-5 .7-7.5v-4.6c0-2.2.1-4.3.5-6.1.5-2 1.4-3.8 3.4-4.9 1.2-.7 2.7-1 4.6-1 1.1 0 2.3.1 3.6.4h.1l1.1.1.1.9c.2 2.6.3 5.2.3 7.9 0 5.9-.5 12-1.3 18.4l-.2 1.4-1.6-.6-.5.5-.2.6L73 199l.4-3.1c.9-6.4 1.4-12.6 1.4-18.6 0-2.7-.1-5.4-.3-8l-.1-1.4v-.6l-2.2-.3h-.1l-.1.7.1-.7c-1.4-.3-2.7-.4-3.9-.4-2 0-3.7.4-5.2 1.2-2.4 1.3-3.6 3.6-4.1 5.8-.4 2-.5 4.2-.5 6.4v4.6c0 2.5-.1 5-.6 7.2-.3 1.2-.7 2.4-1.2 3.4l-1.4 2.6 3 .8c.3.1.5.1.6.1.7.1 1.3.2 1.9.2 1.9 0 3.5-.6 4.6-1l-.3-.6.2.6c1.1-.4 1.7-.6 2.4-.6.3 0 .5 0 .9.1l.1-.7-.1.7c.3.1.7.2 1.2.3l.3-.5zm-6.5-3.1l.3.6c1-.4 2.4-.9 4-.9.4 0 .7 0 1.1.1l.7.1.1-.7c.7-5.6 1.1-10.9 1.1-16.1 0-2.2-.1-4.3-.2-6.3v-.6l-.6-.1c-.6-.1-1.2-.1-1.7-.1-1.4 0-2.4.3-3.1.6-.6.3-1 .8-1.4 1.3-.4.6-.6 1.3-.9 2.2-.4 1.5-.4 3.2-.4 5.2v4.7c0 2.7-.1 5.6-.7 8.3-.1.6-.3 1.2-.5 1.8l-.4 1.2 1.2-.3c.6-.1 1.1-.3 1.7-.6l-.3-.4-.2-.6c-.6.2-1.1.4-1.5.5l.2.7.7.2c.2-.7.4-1.3.6-2 .6-2.9.8-5.8.8-8.6v-4.7c0-1.9.1-3.6.4-4.9.2-.8.4-1.4.7-1.8.3-.4.5-.7.9-.9.4-.2 1.2-.5 2.4-.5.5 0 1 0 1.6.1l.1-.7h-.7c.1 2 .2 4.1.2 6.3 0 5.1-.3 10.4-1 15.9l.7.1.1-.7c-.5-.1-.9-.1-1.3-.1-1.9 0-3.5.6-4.6 1l-.1.7-.2-.6.2.6z"/><path clip-path="url(#b)" fill="#AA182C" d="M-17.2 205.6l.4.6c5.6-3.6 11.8-5.8 18.3-5.8 4.5 0 9.1 1 13.7 3.3.7.3 1.4.7 2.1 1.1l.7.4.3-.7c2.4-4.8 5.3-9.6 7.4-14.3 1.6-3.6 2.7-6.9 2.7-9.8 0-1.4-.3-2.8-.8-4l-.6.3.6-.3-.3-.7.6-.5c6.4-5 13.9-6.7 21.8-6.7 3.5 0 7.1.3 10.8.8 11.7 1.6 23.9 5.1 34.9 5.7l2.4.1-1.5 1.6c-3.9 4.3-7.1 8.7-10 13.2-7.9 12.5-12.8 25.8-19.3 38.8l-.3.6 10.5 5.2.3-.6c3.7-7.5 4.4-18.4 4.5-21.3h-.7.7v-.5l.5-.3c4.4-2.8 9.2-3.8 14.3-3.8 4 0 8.1.6 12.2 1.5 9.4 1.9 19.1 5.1 27.7 5.6H138.4l-.1-.8c-.2-1.7-.4-3.4-.4-5.2 0-2.6.3-5.2 1.1-7.8l1-3.4 1.5 3.3c5 11.1 8.6 23.5 13.7 35.1 5.1 11.6 11.5 22.3 22.3 29.8l.8.6-.6.8c-4.1 5.9-9.7 8.5-14.9 8.5-2.5 0-4.8-.6-6.9-1.6-3.7-1.8-6.7-5.1-8.1-9.1l-.6-1.6-.7 1.6c-4.8 10.3-5.2 19.5-6.1 29.1v.4l-.4.3c-3.1 2.4-6.2 5.2-9.7 7.3-2.7 1.6-5.8 2.7-9.2 2.7-1 0-2-.1-3-.3l-1.1-.2.1-.9c.2-2 .2-3.9.2-5.9 0-9.4-1.8-18.4-4.1-27.3l-.5-1.9-.8 1.8c-5.3 11.4-7 23.1-12.4 31.6-3.8 6-9.7 10.5-19.7 11.5l-.8.1-.4-.6c-4.4-6-10.2-11.7-15.3-17.6-5.2-5.9-9.7-12.1-11.8-19l-.2-.6.5-.4c4.7-4.3 10.2-10.1 14.2-16.5 2-3.2 3.6-6.4 4.6-9.7l.2-.5-9.3-4.6-.3.5c-.2.3-.4.6-.5.8-4.5 7.1-7.2 14.7-9.6 21.9-2.4 7.2-4.6 14-8.1 19.6-4.1 6.5-10.3 11.4-20.7 12.6l-.9.1-.4-.6c-4.7-6.8-11.1-13.1-17.1-19.7-6-6.6-11.7-13.3-14.9-20.8l-.3-.7.7-.5c4.6-3.4 8.2-7.7 11.3-12.5 5-7.9 8.5-17.1 12.9-25.6l.3-.6-.6-.3c-.7-.4-1.4-.8-2.1-1.1C5.4 214.5.7 214-4.4 213l-.2-.1-.2.1c-7.5 3.8-14.8 12.1-20.8 21.7-6.9 10.9-12.2 23.5-14.6 32.4v.2c.1 1.9.9 3.6 2.2 5.3 1.3 1.7 3 3.3 4.9 5l.5-.5-.5.5c1.9 1.7 3.8 3.5 5.4 5.4 1.6 1.9 2.7 4 2.9 6.4l.7-.1-.7.1.2 2-2.1-1c-6.5-3.1-12.4-4-18.2-4.5-5.8-.5-11.6-.6-18-2l-1.2-.3.3-1c3.3-11.8 11.1-31.6 22-48.9 7.1-11.3 15.6-21.5 25.2-27.6l-.6-.5-.4-.6c-9.9 6.3-18.4 16.7-25.7 28.1-11 17.4-18.8 37.3-22.1 49.2l-.7 2.4 2.6.6c6.6 1.5 12.5 1.6 18.2 2.1 5.8.5 11.4 1.3 17.7 4.3l4.4 2.1-.4-4.4c-.3-2.8-1.6-5.1-3.2-7.1-1.7-2-3.7-3.8-5.5-5.5-1.9-1.7-3.5-3.3-4.7-4.8-1.2-1.6-1.9-3-1.9-4.5h-.7l.7.2c2.4-8.8 7.6-21.2 14.5-32.1 5.9-9.5 13.2-17.7 20.3-21.2l-.3-.6-.1.7c5.2 1.1 9.7 1.6 14.8 4.1.7.3 1.3.7 2 1.1l.4-.6-.6-.3c-4.4 8.6-8 17.8-12.8 25.5-3 4.7-6.5 8.9-10.9 12.2l-1.5 1.1.7 1.7c3.3 7.7 9.1 14.5 15.1 21.1 6.1 6.6 12.4 12.9 17 19.6l.7 1 .2.3 1.7-.2c10.7-1.3 17.5-6.5 21.7-13.3 3.6-5.8 5.8-12.7 8.3-19.9 2.4-7.2 5.1-14.7 9.5-21.6.2-.3.4-.6.5-.8l-.6-.4-.3.6 8.2 4.1.3-.6-.7-.2c-.9 3.1-2.5 6.3-4.5 9.4-3.9 6.2-9.3 12-14 16.2l-.8.7-.3.3.4 1.4c2.2 7.2 6.9 13.5 12.1 19.5 5.2 6 10.9 11.7 15.3 17.5l.7.9.2.3 1.6-.2c10.4-1 16.8-5.8 20.8-12.2 5.5-8.9 7.3-20.6 12.5-31.7l-.6-.3-.7.2c2.3 8.9 4.1 17.7 4.1 27 0 1.9-.1 3.8-.2 5.8l-.1 1.5v.6l2.3.4c1.1.2 2.2.3 3.2.3 3.7 0 7.1-1.2 9.9-2.9 3.7-2.1 6.8-5 9.9-7.4l.6-.5.2-.2.1-1c.9-9.6 1.3-18.6 6-28.6l-.6-.3-.7.2c1.6 4.4 4.7 7.8 8.8 9.9l.3-.6-.3.6c2.3 1.2 4.9 1.8 7.6 1.8 5.7 0 11.8-2.9 16.1-9.1l-.6-.4.6.4 1.3-1.9-2-1.4c-10.4-7.3-16.8-17.8-21.8-29.3s-8.6-23.9-13.7-35.1l-3-6.7-2.1 7c-.8 2.8-1.2 5.5-1.2 8.2 0 1.8.2 3.6.4 5.3l.7-.1v-.7h-.8c-8.3-.4-17.9-3.6-27.5-5.6-4.2-.9-8.4-1.5-12.5-1.5-5.3 0-10.5 1.1-15.1 4.1l-.8.5-.3.2v1.2c-.1 2.8-.8 13.6-4.4 20.7l.6.3.3-.6-9.2-4.6-.3.6.6.3c6.6-13.1 11.5-26.4 19.3-38.7 2.8-4.5 6-8.8 9.8-13l3.4-3.7-5.3-.3c-10.8-.5-22.9-4-34.8-5.7-3.7-.5-7.3-.9-11-.9-8.1 0-15.9 1.7-22.7 7l-1.5 1.2.7 1.7c.5 1 .7 2.2.7 3.5 0 2.6-1 5.8-2.6 9.3-2 4.5-5 9.4-7.4 14.2l.6.3.4-.6c-.7-.4-1.5-.8-2.2-1.2-4.7-2.4-9.6-3.5-14.2-3.5-6.8 0-13.3 2.3-19.1 6l.4.6zm34.5 2.8l.4-.6c-1.3-.9-2.6-1.6-3.9-2.2-4.3-2.1-8.4-3.1-12.4-3.1-5.8 0-11.3 2-16.7 5.4-9.1 5.8-17.5 15.8-24.5 26.9C-50 251-57.5 269.7-61 281.4l-.2.7.7.1c5 1 9.8 1.1 14.9 1.5 5 .4 10.2 1 15.8 3.1l1.9.7-1.1-1.7c-1.4-2.3-3.8-4.5-6.3-6.7l-.5.5.5-.5c-1.9-1.7-3.8-3.5-5.3-5.4-1.5-2-2.5-4.1-2.5-6.6h-.7.7v-.2l-.7-.1.7.2c2.5-9.2 7.8-21.9 14.9-33.2 6.4-10 14-18.9 22.5-22.9l.5-.2.5.1c5.2 1.1 10.5 1.6 16.6 4.6 1.2.6 2.5 1.3 3.7 2.1l.8.5-.4.8c-4.6 8.7-8.3 18.6-13.7 27.1-2.9 4.6-6.3 8.9-10.8 12.3l-.4.3.2.5c3.1 6.7 8.4 12.9 14 19 5.7 6.2 11.7 12.3 16.5 18.9l.3.3.4-.1c4.4-.7 7.8-2.1 10.6-4s5-4.4 6.8-7.3c3.4-5.3 5.5-12 7.9-19.2 2.4-7.2 5.2-15 9.9-22.4.5-.8 1-1.6 1.6-2.4l.7-.9 13.2 6.5-.2.8c-1 3.9-2.9 7.8-5.2 11.6-3.9 6.2-9.2 11.9-13.8 16.2l-.3.3.1.4c2.1 6.1 6.3 11.7 11.1 17.2s10.2 11 14.7 16.8l.3.3.4-.1c4.2-.6 7.5-1.8 10.1-3.5 2.6-1.7 4.6-4 6.4-6.7 2.9-4.5 4.7-10.3 6.7-16.6 2-6.3 4.3-13.1 8-19.7l1.6-2.8.8 3.1c2.9 10.6 5.5 21.4 5.5 32.9 0 1.4 0 2.9-.1 4.4v.7h1.4c2.7 0 5.2-.9 7.7-2.3 3-1.7 5.8-4.2 8.8-6.6l.2-.2v-.3c1-10.8 1.5-21.8 9.1-34.5l-.6-.3-.2.7 3.8.9.2-.7h-.7v.3c0 5.9 3.4 10.6 7.8 12.8 1.8.8 3.8 1.3 5.8 1.3 3.8 0 7.9-1.8 11.5-6.1l.4-.5-.6-.4c-9.6-7.3-15.7-16.8-20.4-27-4.7-10.2-8.1-21.1-12.1-31.2l-1.4.2v.3c0 5.5 1.6 11 3.2 16.5 1.7 5.7 3.5 11.5 3.5 17.4 0 2.3-.3 4.6-.9 6.9-.8 2.8-2.2 5.4-3.7 7.8-1.5 2.3-3.1 4.6-4.6 6.9-2.6 4.2-4.8 8.6-4.8 14.3v3l-2.3-2.1c-8.4-7.6-12.7-17.4-12.7-27.9 0-7.9 2.5-16.3 7.7-24.6 2-3.2 4.4-6.4 7.3-9.5l.9-1-1.3-.2c-8-1-16.4-3.7-24.3-5.3-4.1-.8-8-1.4-11.6-1.4-4.3 0-8.3.8-11.9 2.9l-.3.2v.4c-.2 4.2-1.1 15.4-5.7 23l-.6 1-14.9-7.3.5-.9c6.9-13.4 11.9-27.3 20.2-40.5 2.3-3.7 5-7.4 7.9-10.9l.8-1-1.3-.1c-10.4-1-21.2-4-31.5-5.4-3.6-.5-7-.8-10.4-.8-6.9 0-13.4 1.4-18.9 5.3l-.4.3.1.5c.4 1.2.5 2.4.5 3.7 0 3.4-1.2 6.9-2.9 10.5-2.5 5.4-6 11-8.4 16.3l-.6 1.4-1.4-.9.1.8-.4.6 2.8 1.8 1.3-2.9c2.3-5.1 5.9-10.7 8.4-16.3 1.7-3.7 3-7.4 3-11.1 0-1.4-.2-2.7-.6-4.1l-.7.2.4.6c5.3-3.7 11.3-5 18.1-5 3.2 0 6.6.3 10.2.8 10.1 1.4 21 4.4 31.5 5.4l.1-.7-.5-.4c-3 3.6-5.7 7.3-8.1 11.1-8.4 13.3-13.4 27.3-20.3 40.6l-1.1 2.1 17.3 8.5 1.3-2.2c4.7-8 5.6-19.3 5.8-23.6h-.7l.4.6c3.3-1.9 7-2.7 11.2-2.7 3.5 0 7.3.5 11.3 1.4 7.8 1.6 16.2 4.3 24.4 5.3l.1-.7-.5-.5c-2.9 3.2-5.3 6.4-7.4 9.7-5.3 8.4-7.9 17.1-7.9 25.3 0 10.9 4.6 21 13.2 28.9l4.7 4.3-.1-6v-.2c0-5.4 2-9.5 4.6-13.6 1.4-2.3 3.1-4.5 4.6-6.9 1.6-2.5 3-5.2 3.9-8.2.7-2.5 1-4.9 1-7.3 0-6.2-1.8-12.1-3.5-17.8-1.6-5.5-3.2-10.9-3.1-16.1v-.3h-.7l-.7.2c4 10 7.3 20.9 12.1 31.3 4.8 10.3 11 20.1 20.8 27.5l.4-.5-.5-.4c-3.4 4.1-7 5.6-10.4 5.6-1.8 0-3.6-.4-5.2-1.2l-.3.6.3-.6c-4-1.9-7-6.2-7-11.6v-.7l-4.8-1.1-.3.4c-7.8 13-8.3 24.3-9.3 35.1l.7.1-.4-.5c-3 2.4-5.8 4.8-8.6 6.4-2.4 1.3-4.5 2.1-6.9 2.1h-.6v.7h.7c.1-1.5.1-3 .1-4.5 0-11.7-2.7-22.6-5.6-33.2l-1.7-6.4-3.3 5.8c-3.8 6.8-6.1 13.7-8.2 19.9-2 6.3-3.8 11.9-6.6 16.2-1.7 2.6-3.5 4.6-6 6.3-2.4 1.6-5.5 2.7-9.6 3.3l.1.7.5-.5c-4.6-5.8-10-11.3-14.8-16.8-4.8-5.5-8.9-11-10.9-16.8l-.7.2.5.5c4.7-4.4 10-10.1 14-16.5 2.4-3.8 4.3-7.8 5.4-12l.3-1.3.1-.5-15.3-7.6-1.4 1.9c-.6.8-1.1 1.6-1.6 2.5-4.7 7.5-7.5 15.4-10 22.6-2.4 7.2-4.5 13.9-7.8 18.9-1.8 2.8-3.8 5.1-6.5 6.9-2.6 1.8-5.8 3.1-10 3.7l.1.7.6-.4c-4.8-6.7-10.9-12.9-16.6-19-5.4-6-10.6-12.1-13.6-18.6l-.6.3.4.5c4.6-3.6 8.1-8 11.1-12.7 5.5-8.7 9.2-18.6 13.7-27.2l1-1.9-1.8-1.2c-1.3-.9-2.6-1.6-3.9-2.2-6.4-3.1-11.9-3.6-17-4.8l-.7-.2-.2-.1-.9.4c-8.9 4.3-16.7 13.3-23.1 23.5-7.2 11.4-12.6 24.2-15.1 33.5V266.9c0 2.8 1.2 5.2 2.8 7.3 1.6 2.1 3.6 3.9 5.4 5.6 2.5 2.2 4.8 4.4 6.1 6.4l.6-.4.2-.6c-5.8-2.1-11.2-2.8-16.2-3.2-5.1-.4-9.9-.5-14.7-1.4l-.1.7.7.2c3.5-11.6 10.9-30.2 21.1-46.3 7-11.1 15.3-20.9 24.1-26.5 5.2-3.3 10.5-5.1 15.9-5.1 3.8 0 7.7.9 11.8 2.9 1.2.6 2.5 1.3 3.7 2.1l.2-.2zm-42.6 79.5l-.6-.3-.9 1.6 1.2.7.9-1.6-1.2-.7.6.3-.6-.3-.9 1.6 1.2.7.9-1.6-1.2-.7.6.3zm154-59l-.6-.4c-5 8-7.4 16-7.4 23.6 0 8.6 3.1 16.5 8.9 23.2l1 1.1.3-1.4c.7-4.3 2.6-7.9 4.7-11.2 1.5-2.4 3.2-4.7 4.6-6.9 1.5-2.4 2.8-4.7 3.5-7.3.6-2.1.8-4.2.8-6.4 0-5.6-1.7-11.2-3.4-16.9-.9-3-1.7-5.9-2.4-9l-.3-1.3-.9.9c-3.8 3.8-6.9 7.7-9.4 11.6l.6.4.6.4c2.4-3.8 5.5-7.7 9.2-11.4l-.5-.5-.7.1c.6 3.1 1.5 6.1 2.4 9.1 1.7 5.8 3.3 11.2 3.3 16.5 0 2-.2 4-.8 6-.7 2.4-1.9 4.6-3.3 7-1.4 2.2-3 4.5-4.6 6.9-2.1 3.4-4.1 7.2-4.9 11.7l.7.1.5-.4c-5.6-6.4-8.6-14-8.6-22.3 0-7.3 2.3-15.1 7.2-22.9l-.5-.3zm-89.8-49.8l-.1.7c12.2 1.5 24.4 1.8 38.3 7.4l1.2.5-.6 1c-.1.2-.3.4-.4.7-8.2 12.9-11.6 24.7-18.1 37.5l-.6 1.1-12.6-6.2-.9-.4.3-.8c3.4-9.9 6.9-19.8 12-30.2l.6-1.2-1.4.3c-1.4.3-2.6.9-3.7 1.7-1 .8-1.9 1.9-2.8 3.2-2 3.1-3.2 7.2-4.4 11.3-1.3 4.2-2.6 8.4-4.6 11.7-.1.2-.3.4-.4.6l-.7.9-17.7-8.8.6-.9c.3-.5.6-.9.9-1.4 5.9-9.4 8.2-17.9 13.6-27.4l.4-.7.9.1.2-.7.1-.7-1.4-.2-.5-.1-.9 1.5c-5.5 9.7-7.7 18.2-13.5 27.3-.3.4-.6.9-.9 1.3l-1.5 2.2 20.2 10 1.4-1.9-.6-.4.6.4c.2-.3.3-.5.5-.7 2.2-3.5 3.5-7.9 4.8-12 1.3-4.2 2.5-8.2 4.3-11l-.6-.4.6.4c.8-1.2 1.6-2.2 2.5-2.9.9-.7 1.8-1.2 3.1-1.4l-.1-.7-.6-.3c-5.1 10.4-8.6 20.4-12.1 30.3l-.7 1.9 2 1 13.8 6.8 1.2-2.4c6.6-12.9 10-24.6 18.1-37.4.1-.2.3-.5.4-.7l-.6-.3.6.4 1.5-2.4-2.8-1.1c-14.2-5.7-26.5-6-38.6-7.5l-.3 1zm.9 3.7l-.6-.3c-4.8 8.7-7.1 17-12.9 26.2l-.4.6 13.2 6.5.3-.6c1.7-3 2.8-6.9 4-10.9 1.2-3.9 2.5-7.9 4.5-11.1 2.1-3.5 5.7-6.2 10.9-6.3H60l1.8.1-.7 1.4c-5.5 10.7-9.2 20.9-12.7 31.2l-.2.6 9.1 4.5.3-.6c5.7-11.6 9.2-22.7 16.7-34.8l.4-.7-.8-.3c-12-4.5-22.8-4.9-34.1-6.2l-.5-.1-.2.4.7.4-.1.7c11.4 1.3 22 1.8 33.8 6.2l.3-.6-.6-.4c-7.6 12.3-11.1 23.5-16.8 35l.6.3.3-.6-7.9-3.9-.3.6.7.2c3.6-10.3 7.2-20.4 12.7-31L64 186l-3.9-.3v.7l.1-.7c-.5 0-.9-.1-1.4-.1-5.7 0-9.8 3.1-12.1 6.9l.6.3-.6-.4c-2.1 3.4-3.4 7.5-4.6 11.4-1.2 4-2.3 7.8-3.9 10.6l.6.3.3-.6-12-5.9-.3.6.6.4c5.9-9.4 8.2-17.7 12.9-26.2l-.5-.2-.1.7.1-.7zm-3 44.2h-.7v1.1c-.2 6-4.1 12.6-7.8 19.1-3.2 5.8-6.2 11.4-6.5 16.1v.8l.8-.1c2.3-.2 4.1-.7 5.6-1.6 1.5-.9 2.6-2.2 3.6-3.7 2.3-3.5 3.2-8.3 4.3-13.3 1-5 2.2-10.2 4.5-14.3l-.6-.3.6.3.6-1.1 13.4 6.6-.4.8c-6 14.4-11.8 28.8-18.1 43.4l-.4.9-1.2-.3c-2.1-.5-4-1.2-5.8-2.1-5.2-2.6-9.3-6.6-13.3-10.7s-7.8-8.2-12.6-11.1l-1.1-.5 1-.9c1.8-1.6 3.3-3.5 4.5-5.5 2.8-4.3 4.4-9.4 6-14.5 1.7-5.2 3.4-10.5 6.3-15.5l.6-1.1 16.4 8.1.3-.6h-.7.7l.3-.6-17.6-8.7-1.3 2.2c-3 5.1-4.7 10.6-6.4 15.8-1.7 5.2-3.3 10.1-5.9 14.2-1.2 1.9-2.6 3.6-4.3 5.2l-2.3 2.1 2.7 1.7c4.6 2.7 8.3 6.8 12.3 10.8 4 4.1 8.2 8.2 13.7 11 1.9.9 3.9 1.7 6.1 2.2l2.3.5.9-2v.1c6.4-14.6 12.2-29 18.2-43.4l.8-2-15.7-7.8-1.3 2.2c-2.5 4.4-3.6 9.7-4.7 14.7-1 5-2 9.7-4.1 12.9-.9 1.4-1.9 2.5-3.2 3.3-1.3.8-2.8 1.3-5 1.4l.1.7h.7c.2-4.2 3.1-9.8 6.3-15.5 3.6-6.5 7.6-13.2 7.9-19.7v-1.5l-.4-.2-.1.4zm-15.3-3.5l-.6-.3c-4.7 9.1-5.9 19.7-11.4 28.4-1 1.6-2.1 3.1-3.4 4.5l-.5.6.6.4c4.6 3.2 8.3 7.2 12 11 3.7 3.8 7.4 7.3 11.9 9.5l.3-.6-.3.6c1.1.5 2.2 1 3.4 1.4l.6.2.3-.6c5.9-13.5 11.3-26.9 16.9-40.4l.2-.6-9.1-4.5-.3.6c-1.8 3.8-2.6 8.4-3.6 13.1-1 4.6-2.1 9.3-4.3 12.9-2.3 3.8-6.5 6.6-12.8 6.6h-2l-.1-1v-1.2c0-5.6 3.3-11.7 6.7-17.8 3.4-6.1 6.8-12.1 7.4-17.2l.1-.5-12.2-6-.3.6.5.3-.3.6 11.1 5.5.3-.6H32c-.5 4.6-3.9 10.6-7.3 16.7s-6.9 12.3-6.9 18.5c0 .4 0 .9.1 1.3l.1 1.5.1.6 2.4.1v-.7.7h.9c6.7 0 11.4-3.1 14-7.3 2.4-3.9 3.5-8.6 4.5-13.3 1-4.7 1.8-9.3 3.5-12.8l-.6-.3-.3.6 7.9 3.9.3-.6-.7-.3c-5.6 13.5-11 26.9-16.9 40.4l.6.3.2-.6c-1.1-.3-2.2-.8-3.2-1.3-4.2-2-7.8-5.4-11.5-9.2-3.7-3.8-7.5-7.8-12.2-11.1l-.4.6.5.5c1.4-1.5 2.6-3 3.6-4.7 5.6-9.1 6.8-19.8 11.4-28.5l-.6-.5-.3.6.3-.6zm69.1-5.6l.6.4.8-1.2 1.2 1c.6.5 1.1.8 1.6 1 1.1.6 2.1.6 3.3.7 1.2.1 2.7.2 4.4 1 .4.2.9.5 1.3.8l.8.5-.4.8c-4 7.1-5.1 13.8-9.8 21.4l-.7 1.1-11.1-5.5-.9-.4.3-.8c2.2-5.9 3.7-11.8 7.8-18.4.4-.6.8-1.3 1.3-1.9l-.5-.5-.6-.4c-.5.7-.9 1.3-1.3 2-4.3 6.8-5.8 12.8-8 18.6L80 240l2 1 12.2 6.1 1.3-2.1c4.8-7.9 6-14.5 9.8-21.4l1-1.8-1.7-1.2c-.5-.4-1-.7-1.5-.9-1.9-1-3.7-1.1-4.9-1.2-1.3-.1-1.9-.2-2.8-.6-.4-.2-.8-.4-1.3-.9l-2.4-1.9-1.7 2.4.6.4zm2.2 3.7l-.6-.4c-3.7 5.8-5.2 11.1-7.2 16.6l-.2.6 7.8 3.8.3-.6c3.4-6.2 4.8-11.9 8-18.2l.3-.7-.7-.3c-.9-.4-1.8-.4-2.8-.5-1.2-.1-2.7-.2-4.4-1l-.3.6.3-.6-.2-.1-.6-.3-.4.7.7.4.6.4.1-.1-.6-.4-.3.6.2.1c1.9 1 3.7 1.1 4.9 1.2 1.1.1 1.7.1 2.4.4l.3-.6-.6-.3c-3.3 6.5-4.7 12.2-8 18.2l.6.3.3-.6-6.6-3.3-.3.6.7.2c2-5.6 3.5-10.8 7-16.4l-.7-.3.6.4-.6-.4zm-1.4 34l-.7-.3-.6 1.4c-1.4 3.3-3.1 6.6-4.5 9.8-1.4 3.2-2.6 6.3-2.9 9.1l-.1.7.7.1c.5 0 .9.1 1.3.1 1.4 0 2.6-.3 3.5-.9.9-.6 1.6-1.4 2.3-2.3 1.1-1.7 1.8-4 2.4-6.4.6-2.4 1.2-5 1.9-7.3l.4-1.3 1.4.6c1.5.6 2.8.9 3.8.9.8 0 1.5-.2 2-.5l-.4-.6.4.6 2-1.2.1 2v1c0 7.6-3.6 18.4-8.9 26.8-1.7 2.6-3.5 5-5.5 7l.5.5.4-.5-1.5-1.2-.9 1.1.9.7-.2.2-.9-.5-.2-.1c-5.3-2.6-8.5-5.9-11.5-8.9-3-3.1-5.8-6-10.6-8.5l-1-.7.8-.9c.5-.6 1-1.3 1.4-2 1.8-2.9 3.3-6.6 4.9-10.6 1.6-4 3.3-8.3 5.7-12.3l.6-1.1 12.6 6.2.4-.7-.7-.3.7.3.3-.6-13.8-6.8-1.3 2.2c-2.4 4.2-4.2 8.5-5.8 12.5-1.6 4-3.1 7.6-4.8 10.4-.4.7-.9 1.3-1.3 1.9l-1.8 2.2 2.6 1.4c4.5 2.4 7.2 5.1 10.2 8.2 3 3.1 6.3 6.5 11.9 9.2l.2.1 1.9.9 2-2-2.1-1.6-.9 1.1 2 1.6.4-.4c2.1-2.1 3.9-4.5 5.6-7.2 5.4-8.6 9.1-19.5 9.1-27.5v-1l-.2-4.4-4 2.5c-.3.2-.7.3-1.3.3-.8 0-1.9-.2-3.3-.8l-2.8-1.2-.9 2.7c-.8 2.4-1.3 5-1.9 7.4-.6 2.4-1.3 4.5-2.2 6l.6.4-.6-.4c-.6.9-1.2 1.5-1.9 2-.7.4-1.5.6-2.7.6-.4 0-.7 0-1.2-.1l-.1.7.7.1c.3-2.5 1.4-5.5 2.8-8.7 1.4-3.2 3.1-6.5 4.5-9.8l.8-2-.6-.3-.1.4zM79.9 254l-.6-.3c-3.9 7.4-6.1 15.5-9.7 21.3-.2.2-.3.5-.5.7l-.4.6.6.4c4.1 2.5 6.8 5.3 9.5 8 2.7 2.8 5.4 5.5 9.5 7.8l.5.3.4-.4c1.4-1.6 2.8-3.4 4.1-5.5 4.7-7.4 8.1-17.2 8.6-24.1l.1-.8-.8.1h-.7c-.9 0-1.9-.2-2.8-.4l-.7-.2-.2.7c-1.1 4-1.8 8.7-3.9 12.2-1.5 2.5-4.3 4.4-8.3 4.4-1 0-2.1-.1-3.3-.4l-1-.2v-.8h-.7.4c0-6.3 4.1-13.2 7-19.7l.3-.6-7.7-3.8-.3.6.6.1-.3.6 6.5 3.2.3-.6-.6-.3c-2.8 6.5-7.1 13.4-7.2 20.3v1.9l2.1.4.1-.7-.2.7c1.3.3 2.5.5 3.7.5 4.4 0 7.8-2.1 9.5-5.1l-.6-.3.6.3c2.4-3.8 3-8.7 4.1-12.5l-.7-.2-.2.7c1 .3 2.1.5 3.2.5h.9l-.1-.7h-.7c-.4 6.6-3.7 16.3-8.4 23.5-1.2 2-2.6 3.8-3.9 5.3l.5.4.3-.6c-4-2.2-6.5-4.7-9.2-7.5-2.6-2.7-5.4-5.7-9.8-8.2l-.4.6.6.4c.2-.3.3-.5.5-.8 3.8-6 5.9-14.2 9.8-21.4l-.4-.4-.3.6.3-.6zm32.3-33.8l-.4.5c.4.3.8.6 1.2.7.9.4 1.7.6 2.6.6.5 0 .9 0 1.5-.1.5 0 1-.1 1.6-.1 1.2 0 2.6.2 4 .9.2.1.3.2.5.3l1.1.7-.9.9c-1 .9-1.8 2-2.5 3.2-1.7 2.7-2.8 5.8-3.9 8.8-1 3-2 6-3.5 8.2-1.1 1.8-2.7 3.3-5 3.8-.6.1-1.1.2-1.7.2-1.9 0-3.9-.6-6.3-1.8h-.1l-.9-.4.2-.8c2.2-8 5.6-16.2 10-24.7l.7-1.4 1.3 1 .5-.5.4-.5-2.7-1.9-1.5 2.8c-4.5 8.6-7.9 16.9-10.1 25l-.4 1.4-.2.6 2 .9h.1l.3-.6-.3.6c2.5 1.2 4.8 1.9 6.9 1.9.7 0 1.4-.1 2.1-.2 2.8-.6 4.6-2.5 5.8-4.4 1.5-2.5 2.5-5.5 3.6-8.5 1-3 2.1-6.1 3.7-8.5.7-1.1 1.5-2.1 2.3-2.9l2.2-2.1-2.6-1.6-.6-.3c-1.7-.9-3.3-1.1-4.7-1.1-.7 0-1.2 0-1.7.1l.1.7-.1-.7c-.6 0-1 .1-1.4.1-.7 0-1.2-.1-2-.5l-.3.6.3-.6c-.3-.2-.6-.3-1-.6l-.2.3zm5.2 4.6l-.1-.7c-.5 0-1 .1-1.6.1-1.1 0-2.3-.1-3.6-.7l-.6-.3-.3.6c-3.6 7.2-6.5 14.3-8.5 21.1l-.2.6.6.2c1.6.7 2.8.9 3.8.9.4 0 .7 0 1-.1.6-.1 1.2-.4 1.8-.9.5-.5 1-1.1 1.5-1.8 1.3-2 2.2-4.8 3.2-7.8 1.1-3.1 2.3-6.3 4.1-9.2.3-.6.7-1.1 1.1-1.6l.8-1h-1.6c-.5 0-1 0-1.5.1l.1.5v.7c.6 0 1-.1 1.4-.1h.2v-.7l-.6-.4c-.4.6-.8 1.1-1.2 1.7-1.9 3.1-3.1 6.4-4.2 9.5-1.1 3.1-2 5.8-3.1 7.5-.4.7-.9 1.2-1.3 1.5-.4.3-.8.5-1.2.6-.2 0-.4.1-.7.1-.7 0-1.8-.2-3.2-.8l-.3.6.7.2c2-6.7 4.8-13.7 8.4-20.9l-.6-.3-.3.6c1.5.7 3 .8 4.2.8.7 0 1.2 0 1.7-.1l.1-.5v.7-.7z"/></g><g><path fill="#AA182C" d="M137.5 205.3s-23.3-23.3-37.3 10.1c0 0 1-14.9 13.2-20.2 12.4-5.5 24.1 10.1 24.1 10.1"/><path fill="#F18A00" d="M206.6 147.1s-29.4-9.3-34.2-9.2c-4.7.1 1-9.2 8.3-5.9 7.3 3.3 29.3 10.8 25.9 15.1M132.1 205.5c-.3.5-.6 1-.8 1.7-.3 1-.4 1.9-.3 2.6.1.7.4 1.2.9 1.4.5.2 1-.1 1.5-.6l.2-.3c.4-.5.8-1.2 1.1-2 .3-1 .4-1.9.3-2.6-.1-.7-.4-1.2-.9-1.4-.5-.2-1 .1-1.5.6-.2.2-.3.4-.5.6M144.5 205.5c.3.5.6 1 .8 1.7.3 1 .4 1.9.3 2.6-.1.7-.4 1.2-.9 1.4-.5.2-1-.1-1.5-.6l-.2-.3c-.4-.5-.8-1.2-1.1-2-.3-1-.4-1.9-.3-2.6.1-.7.4-1.2.9-1.4.5-.2 1 .1 1.5.6.2.2.3.4.5.6"/><path fill="#F18A00" d="M202.1 158.6c-6.3-14.3-15-24-25.3-29.8-10.3-5.9-22-7.9-34.2-7.9-5.5 0-11.1.4-16.9 1.1-21.9 2.4-37.7 13.9-48 28.5-10.3 14.7-15.5 32.5-17.4 48.8-.3 2.6-.5 5.2-.5 7.7-.1 14.9 5.7 27.5 15.9 36.4 10.2 8.9 24.5 14.2 41.8 16.2 6.7.8 13.4 1.1 20 1.1 14.8 0 28.9-1.8 40.7-5.3 11.7-3.5 21.3-8.4 26.9-15.9 5.8-7.8 10.9-17.2 10.8-30.8.1-12.3-3.9-27.9-13.8-50.1"/><path fill="#F5B335" d="M126.3 127.1c-40.9 4.7-57.3 41.5-61 72.9-3.7 31.5 16.9 50.6 52.7 54.6 35.9 4.1 72.3-3.5 82.9-18 10.6-14.5 16.8-30.2-3.5-76-14.6-33-40.5-37-71.1-33.5"/><path fill="#F18A00" d="M136.7 131.5c.8.6 1.2 1.4 1.2 2.2 0 1.2-.9 2.3-2.5 3-1.5.8-3.6 1.2-5.9 1.2-2.3 0-4.3-.5-5.8-1.2-.2-.1-.5-.2-.7-.4-1.1-.7-1.8-1.6-1.8-2.6 0-1.2.9-2.3 2.5-3 1.5-.8 3.6-1.2 5.9-1.2 2.3 0 4.3.5 5.9 1.2.4.2.8.5 1.2.8M140.3 145.4c.7.6 1.1 1.4 1.1 2.2 0 1.2-.9 2.3-2.3 3-1.4.8-3.3 1.2-5.4 1.2-2.1 0-4-.5-5.4-1.2-.2-.1-.4-.2-.6-.4-1-.7-1.6-1.6-1.6-2.6 0-1.2.9-2.3 2.3-3 1.4-.8 3.3-1.2 5.4-1.2 2.1 0 4 .5 5.4 1.2.4.2.7.5 1.1.8M156.6 132.6c.7.6 1.1 1.2 1.1 1.9 0 1-.9 1.9-2.3 2.6-1.4.7-3.3 1.1-5.4 1.1-2.1 0-4-.4-5.4-1.1l-.6-.3c-1-.6-1.6-1.4-1.6-2.3 0-1 .9-1.9 2.3-2.6 1.4-.7 3.3-1.1 5.4-1.1 2.1 0 4 .4 5.4 1.1.3.2.7.4 1.1.7M121.9 147.2c.5.4.7.9.7 1.4 0 .8-.6 1.5-1.5 2s-2.2.8-3.7.8c-1.4 0-2.7-.3-3.7-.8-.2-.1-.3-.2-.4-.3-.7-.5-1.1-1.1-1.1-1.7 0-.8.6-1.5 1.5-2s2.2-.8 3.7-.8c1.4 0 2.7.3 3.7.8.3.2.6.4.8.6M113.7 137.9c.6.5.9 1 .9 1.6 0 .9-.7 1.7-1.8 2.2-1.1.6-2.6.9-4.3.9-1.7 0-3.2-.3-4.3-.9-.2-.1-.3-.2-.5-.3-.8-.5-1.3-1.2-1.3-1.9 0-.9.7-1.7 1.8-2.2 1.1-.6 2.6-.9 4.3-.9 1.7 0 3.2.3 4.3.9l.9.6M101.5 119.9s-33.1 20.7-37.1 25.3c-3.9 4.7-7.2-8.8 1.9-13.1 9.2-4.2 34.4-19.1 35.2-12.2"/><path fill="#AA182C" d="M119.2 187.4s-28.3-26.6-49.6 12c0 0 2.6-17.2 19-23.4 16.7-6.4 30.6 11.4 30.6 11.4M103.4 221.6s27.8 41.3 69.8 3.7c0 0-9.6 19.2-33.5 20.7-24.3 1.4-36.3-24.4-36.3-24.4"/><path fill="#AA182C" d="M95.9 220.4s10.5 5.8 15-3.6c0-.1-6.8 5-15 3.6M167.2 221.4s7.6 9.1 15.3 1.8c0 0-8.1 2.4-15.3-1.8M218.6 175.3c-1.3 22.8-14.4 40.5-29.2 39.5-14.8-1-25.7-20.2-24.4-43 1.3-22.8 14.4-40.5 29.2-39.5 14.8 1 25.7 20.2 24.4 43"/><path fill="#FFF" d="M215 175c-1.2 20.4-12.5 36.2-25.3 35.4-12.8-.8-22.2-18-21-38.4 1.2-20.4 12.5-36.2 25.3-35.4 12.7.9 22.1 18.1 21 38.4"/><path fill="#AA182C" d="M203.9 182.5c-.8 13.7-7.3 24.4-14.6 23.9s-12.5-11.9-11.7-25.6c.8-13.7 7.3-24.4 14.6-23.9 7.2.4 12.5 11.9 11.7 25.6"/><path fill="#F18A00" d="M223 175.2s-11.4-48.5-30.7-46.4c-25.4 2.7-30.5 38.1-30.5 38.1l61.2 8.3z"/><path fill="#F5B335" d="M216.7 169.5s-8.3-34.9-24.3-32.7c-16 2.3-24.3 25.5-24.3 25.5l48.6 7.2z"/><path fill="#F18A00" d="M214.4 126.4s-27.9-8.8-32.4-8.7c-4.5.1.9-8.8 7.9-5.6 6.9 3.1 27.8 10.2 24.5 14.3"/><path fill="#653A2B" d="M73.5 65c0 3.7-1.9 5.4-2 8.9-2.5-.3-5.9.9-9.4 1v-3.5c2.6-.4 5.5-.4 7.4-1.5-1-3.7-4.6-1.6-7.4-1-.1-.9-.3-1.7-1-2 2.8-1.7 8.7-2.7 12.4-1.9m3.9 16.8c1.1 4.1-2.1 8.1-2.5 12.4-4.3-1.1-8.7 1.3-13.4 1.5v-5c3.5-1.8 10.2-.3 13.4-2.5-2.7-5.1-8.7-.1-13.4 0v-4c5.4-.7 10.6-1.6 15.9-2.4m-19.8-5.9c-2.4.5-4.5 1.1-7.4 1 .4-1.7-.7-1.9-.5-3.5 2.8-.1 5-1 7.9-1v3.5zm-10.4-8c1.5.4 3.2 0 4.8-.3 2.8-.6 5.2-1.2 5.2 2.3-2.7.7-5.7 1.2-8.9 1.5.2-1.8-1.2-1.9-1.1-3.5m10.4 20.9c-3.8.8-7.6 1.6-11.9 2 1.3 2.8 4.4 2 7.5 1.2 1.5-.4 3.1-.8 4.4-.7v5.4c-4.1-.1-7.1.8-10.9 1-1.4-3.6-3.1-6.8-3.5-11.4 5.3 0 9.5-1.1 14.4-1.5v4zm31.7 7.9c-2.5 1.7-1.8 6.4-4.5 7.9-5.9 1.7-17.3 2.7-22.3-.5-.5-1.9-1.3-3.6-1-6.4 5.3-.4 11.1-1.9 15.9 0 3.5-4.1 4.7-10.5 7.4-15.4-3.5-4.6-8.1-3.3-13.7-2.1-2.8.6-5.9 1.3-9.1 1.1v-4c3.6-1.1 8.2-.4 11.4.5 3.4-3.3 4.6-8.9 6.9-13.4-4.6-6.3-11.1-1.3-19.3-1 3.3-3 6.6-5.9 10.9-7.9-.8-2.5-3.5-3.1-5.9-4-3.5 1.6-6.9 3.3-11.9 3.5 4.3-2.3 4.2-8.6-2-8.9C50.8 54.7 43 60.6 37.8 67c5.8-1.5 8.4-7.9 13.9-9.4 1.4-.4 2.8-.3 4.2-.3 2.1.1 4.4.1 6.7-1.2-2.2 7.3-9.8 11.5-19.8 9.4 2.3 4.9 1.9 12.6 6.9 14.9 1-.5 4.8-2.4 7.9-2.5v4.5c-6.9.6-13.5 2.2-20.8 1 3 6.2 3.1 15.4 9.9 17.8 2-2.5 6.9-2 10.9-2.5-1.9 15.2 25.6 11.5 35.2 8.9-1-3.8-3.4-6.2-3.5-10.9"/></g><g><defs><path id="c" d="M49.6 84.8v4c-3.7.8-7.3 1.6-11.4 1.9h-.5c.7 1.5 1.9 2 3.3 2 1.3 0 2.7-.4 4.2-.7 1.5-.4 2.9-.7 4.1-.7h.2v5.4h-.6c-2.5 0-4.6.4-6.8.7-.5.1-1 .1-1.5.2-.7.1-1.3.1-2 .2-1.4-3.6-3.1-6.8-3.5-11.4h.3c5.3-.1 9.4-1.2 14.2-1.6m4 2.3v-2.8c5.3-.8 10.5-1.7 15.9-2.5.2.6.2 1.2.2 1.8 0 2.5-1.2 5-2 7.6-.3.8-.5 1.7-.6 2.5 0 .2 0 .3-.1.5-.8-.2-1.6-.3-2.4-.3h-.2c-.5 0-1 0-1.4.1-1.8.2-3.7.7-5.6 1.2-.5.1-1 .2-1.4.3-.8.1-1.6.2-2.4.2v-5c3.5-1.8 10.2-.3 13.4-2.5-.9-1.7-2.2-2.3-3.7-2.3-.9 0-1.9.2-2.9.5-.5.1-.9.3-1.4.4-1.6.6-3.3 1.2-4.9 1.3h-.5v-1zM42.8 76.9h-.6c.1-.3.1-.5.1-.7 0-1-.6-1.4-.6-2.4v-.4c2.8-.1 5-1 7.9-1v3.5c-.4.1-.8.2-1.1.2-.5.1-.9.2-1.4.3-.9.2-1.7.3-2.7.4-.5 0-.9.1-1.4.1h-.2m1.2-9.3c1.1-.2 2.1-.5 2.9-.5 1.3 0 2.2.6 2.2 2.7-.4.1-.7.2-1.1.3-.5.1-.9.2-1.4.3-.6.1-1.1.2-1.7.3-.5.1-1.1.2-1.6.2-1 .1-2 .2-3.1.3v-.5c0-1.3-1.1-1.5-1-2.9v-.1c.5.1.9.2 1.4.2 1.1.2 2.3 0 3.4-.3m9.8 0c-.2-.3-.4-.5-.7-.7 2.1-1.3 6.1-2.3 9.5-2.3 1 0 2 .1 2.9.3v.1c0 .8-.1 1.4-.2 2-.1.7-.3 1.3-.5 1.8-.4 1-.8 2-1 3.2-.1.5-.2 1.1-.2 1.7h-.9c-1.9 0-4.4.6-6.9.9-.6.1-1.1.1-1.7.1v-3.5c2.6-.4 5.5-.4 7.4-1.5-.4-1.3-1.1-1.9-1.9-2.1-.2 0-.4-.1-.6-.1-.5 0-.9.1-1.5.2s-1.2.3-1.7.5-1 .3-1.5.4h-.2c-.1-.2-.2-.6-.3-1M42.2 51.8c-.2.5-.5.9-.8 1.4-.5.8-1 1.5-1.5 2.2l-.9 1.2-1.5 1.8c-.4.4-.7.8-1.1 1.2-2.3 2.5-4.7 4.9-6.7 7.4 5.8-1.5 8.4-7.9 13.9-9.4.9-.3 1.9-.3 2.8-.3h2.8c1.7 0 3.5-.2 5.3-1.2-1.8 6-7.3 10-14.8 10-1.6 0-3.3-.2-5-.6 2.4 4.9 1.9 12.6 6.9 14.9 1-.5 4.8-2.4 7.9-2.5v4.5c-.8.1-1.6.1-2.3.2-.5.1-1 .1-1.5.2-3.8.5-7.6 1-11.5 1h-.9c-.6 0-1.1 0-1.7-.1-1-.1-1.9-.2-2.9-.3 3 6.2 3.1 15.4 9.9 17.8 2-2.5 6.9-2 10.9-2.5-.1.5-.1 1-.1 1.5 0 7.6 8.4 9.8 17.3 9.8 6.8 0 14-1.3 18-2.4 0-.2-.1-.3-.1-.5 0-.1 0-.1-.1-.2-1.1-3.4-3.2-5.8-3.3-10.2-1 .7-1.5 1.8-1.9 3l-.6 1.8c-.2.6-.4 1.2-.7 1.7-.2.4-.5.8-.9 1.1-.1.1-.3.2-.4.3-.7.2-1.6.4-2.5.6-.6.1-1.3.3-2 .4-2.4.4-5.1.6-7.7.6h-.1c-.7 0-1.4 0-2.1-.1h-.5c-.9-.1-1.8-.2-2.6-.3-.5-.1-1.1-.2-1.6-.3-1.2-.3-2.4-.8-3.3-1.3-.5-1.6-1.1-3.1-1.1-5.1 0-.4 0-.8.1-1.3 3.4-.2 6.9-.9 10.2-.9 2 0 3.8.2 5.6.9 3.5-4.1 4.7-10.5 7.4-15.4-.2-.3-.5-.6-.7-.8-1.2-1.2-2.5-1.9-3.9-2.2-.6-.1-1.1-.2-1.7-.2h-.3c-.8 0-1.6.1-2.5.2l-1.5.3c-1 .2-2.1.4-3.1.7-.8.2-1.6.4-2.5.5-.5.1-1 .2-1.6.3-1 .1-2 .3-3 .3h-2.1v-4c1.3-.4 2.7-.5 4.2-.5 2.6 0 5.2.5 7.2 1 3.4-3.3 4.6-8.9 6.9-13.4-.1-.2-.3-.4-.4-.6-.6-.8-1.3-1.3-2.1-1.7-.7-.4-1.5-.6-2.3-.8-.4-.1-.9-.1-1.3-.1-1.3 0-2.6.2-4.1.5-1.8.4-3.7.9-5.8 1.3-1.1.2-2.2.3-3.4.4 3.3-3 6.6-5.9 10.9-7.9-.2-.5-.4-.9-.7-1.3-.3-.4-.8-.8-1.2-1.1-.6-.4-1.3-.7-2-.9-.7-.2-1.4-.5-2.1-.7-.3.1-.6.3-.9.4-.4.2-.8.4-1.3.6-2.8 1.3-5.8 2.4-9.7 2.5 1.9-1.1 3-2.9 3-4.6 0-2.1-1.6-4.1-5-4.3.3 1.9-.3 3.7-1.3 5.5"/></defs><clipPath id="d"><use xlink:href="#c" overflow="visible"/></clipPath><path clip-path="url(#d)" fill="#674459" d="M28.8 46.2h56V110h-56z"/></g></svg>